<svg width="137" height="31" viewBox="0 0 137 31" fill="none" xmlns="http://www.w3.org/2000/svg">
<g id="Logo" opacity="0.6">
<path d="M33.4969 7.28961H36.6525V22.598H33.4969V7.28961Z" fill="#1D2130"/>
<path d="M38.4197 17.3539C38.4197 16.2525 38.7444 15.1759 39.3526 14.2606C39.9608 13.3453 40.8251 12.6325 41.836 12.2124C42.8469 11.7924 43.9589 11.6842 45.0309 11.9014C46.103 12.1185 47.0869 12.6514 47.8579 13.4325C48.629 14.2135 49.1524 15.2075 49.3619 16.2885C49.5714 17.3694 49.4575 18.4887 49.0347 19.5045C48.6119 20.5202 47.8992 21.3866 46.9869 21.9939C46.0747 22.6012 45.0039 22.9221 43.9104 22.9158C43.1851 22.9215 42.4659 22.7813 41.7952 22.5034C41.1244 22.2255 40.5154 21.8155 40.004 21.2975C39.4926 20.7795 39.089 20.1638 38.817 19.4866C38.5449 18.8094 38.4098 18.0844 38.4197 17.3539ZM46.3297 17.3539C46.3172 16.8791 46.1661 16.4185 45.8952 16.0297C45.6242 15.641 45.2455 15.3413 44.8063 15.1682C44.3671 14.9951 43.887 14.9562 43.426 15.0565C42.9651 15.1567 42.5437 15.3916 42.2145 15.7318C41.8854 16.072 41.6632 16.5024 41.5757 16.9691C41.4881 17.4359 41.5392 17.9182 41.7224 18.3559C41.9056 18.7936 42.2129 19.1671 42.6058 19.4298C42.9987 19.6925 43.4598 19.8327 43.9314 19.8329C44.2525 19.8392 44.5714 19.7787 44.8683 19.6553C45.1651 19.5318 45.4335 19.348 45.6566 19.1153C45.8797 18.8827 46.0527 18.6062 46.1649 18.3031C46.2771 18 46.326 17.6769 46.3086 17.3539H46.3297Z" fill="#1D2130"/>
<path d="M61.8867 12.1099V22.0788C61.8867 25.5961 59.1519 27.0898 56.3855 27.0898C55.4097 27.1705 54.431 26.9752 53.5594 26.526C52.6878 26.0768 51.9581 25.3915 51.4523 24.5473L54.1135 23.0005C54.3291 23.4384 54.6721 23.7997 55.0969 24.0363C55.5216 24.2729 56.0078 24.3735 56.4907 24.3248C56.7983 24.363 57.1105 24.3322 57.405 24.2347C57.6994 24.1372 57.9689 23.9753 58.194 23.7607C58.4191 23.5462 58.5944 23.2841 58.7072 22.9934C58.8201 22.7026 58.8678 22.3903 58.8468 22.0788V21.1148C58.4796 21.5632 58.0137 21.9192 57.486 22.1546C56.9583 22.39 56.3834 22.4983 55.807 22.4708C54.4121 22.4708 53.0744 21.9128 52.0881 20.9194C51.1018 19.926 50.5477 18.5787 50.5477 17.1738C50.5477 15.769 51.1018 14.4216 52.0881 13.4283C53.0744 12.4349 54.4121 11.8768 55.807 11.8768C56.3834 11.8494 56.9583 11.9576 57.486 12.193C58.0137 12.4284 58.4796 12.7844 58.8468 13.2328V12.1734L61.8867 12.1099ZM58.8468 17.142C58.8678 16.6352 58.7378 16.1336 58.4735 15.7018C58.2091 15.27 57.8226 14.9276 57.3636 14.7189C56.9045 14.5101 56.394 14.4444 55.8975 14.5302C55.4011 14.616 54.9415 14.8494 54.5779 15.2004C54.2142 15.5514 53.9631 16.0039 53.8569 16.4998C53.7507 16.9957 53.7941 17.5122 53.9817 17.983C54.1693 18.4538 54.4924 18.8573 54.9095 19.1417C55.3267 19.426 55.8187 19.5782 56.3224 19.5787C56.651 19.6025 56.981 19.5567 57.291 19.4441C57.6009 19.3315 57.884 19.1547 58.1219 18.9251C58.3598 18.6954 58.5473 18.4181 58.6721 18.111C58.797 17.8039 58.8565 17.4738 58.8468 17.142Z" fill="#1D2130"/>
<path d="M63.6643 17.3539C63.6643 16.2534 63.9885 15.1777 64.5957 14.2628C65.203 13.3479 66.0661 12.6351 67.0758 12.2144C68.0854 11.7938 69.1963 11.6842 70.2678 11.8997C71.3393 12.1152 72.3233 12.6459 73.0952 13.4248C73.867 14.2037 74.3922 15.1958 74.604 16.2754C74.8159 17.3549 74.7051 18.4736 74.2855 19.4897C73.8659 20.5058 73.1565 21.3737 72.247 21.9836C71.3374 22.5934 70.2687 22.9179 69.1761 22.9158C68.4494 22.9229 67.7287 22.7838 67.0561 22.5066C66.3835 22.2295 65.7726 21.8199 65.2592 21.3019C64.7459 20.7839 64.3404 20.1678 64.0665 19.4899C63.7926 18.812 63.6559 18.0858 63.6643 17.3539ZM71.5743 17.3539C71.5619 16.8786 71.4105 16.4176 71.1391 16.0286C70.8676 15.6397 70.4883 15.34 70.0485 15.1672C69.6087 14.9944 69.1281 14.9562 68.6668 15.0573C68.2056 15.1584 67.7842 15.3944 67.4556 15.7357C67.1269 16.0769 66.9055 16.5083 66.8191 16.9757C66.7328 17.4431 66.7853 17.9258 66.9702 18.3632C67.155 18.8007 67.4639 19.1735 67.8582 19.435C68.2524 19.6964 68.7146 19.8348 69.1866 19.8329C69.5077 19.8392 69.8266 19.7787 70.1235 19.6553C70.4203 19.5318 70.6887 19.348 70.9118 19.1153C71.1349 18.8827 71.3079 18.6062 71.4201 18.3031C71.5323 18 71.5812 17.6769 71.5638 17.3539H71.5743Z" fill="#1D2130"/>
<path d="M76.15 9.30242C76.15 8.92945 76.2598 8.56486 76.4655 8.25475C76.6713 7.94465 76.9637 7.70295 77.3058 7.56022C77.6479 7.41749 78.0244 7.38015 78.3876 7.45291C78.7508 7.52567 79.0844 7.70527 79.3462 7.969C79.6081 8.23272 79.7864 8.56873 79.8586 8.93452C79.9309 9.30032 79.8938 9.67948 79.7521 10.0241C79.6104 10.3686 79.3704 10.6631 79.0625 10.8703C78.7546 11.0776 78.3926 11.1882 78.0223 11.1882C77.5274 11.1826 77.0544 10.9822 76.7044 10.6297C76.3545 10.2773 76.1555 9.80083 76.15 9.30242ZM76.455 12.1098H79.6106V22.5979H76.455V12.1098Z" fill="#1D2130"/>
<path d="M93.1165 17.3539C93.1518 18.0515 93.0499 18.7491 92.8165 19.4068C92.5831 20.0645 92.2229 20.6692 91.7566 21.1861C91.2903 21.7031 90.727 22.122 90.0993 22.4188C89.4716 22.7157 88.7918 22.8846 88.0991 22.9158C87.5112 22.9552 86.9221 22.8604 86.3757 22.6384C85.8293 22.4165 85.3397 22.0731 84.9435 21.6339V26.8144H81.7879V12.1099H84.9435V13.0952C85.3402 12.6573 85.8302 12.3155 86.3767 12.0953C86.9231 11.8752 87.512 11.7824 88.0991 11.8239C88.7891 11.8552 89.4662 12.023 90.0917 12.3179C90.7173 12.6127 91.279 13.0288 91.745 13.5423C92.2109 14.0558 92.5718 14.6567 92.8071 15.3107C93.0424 15.9647 93.1476 16.659 93.1165 17.3539ZM89.9609 17.3539C89.9484 16.8619 89.7921 16.3845 89.5114 15.9816C89.2308 15.5787 88.8382 15.2681 88.3831 15.0889C87.9279 14.9097 87.4304 14.8698 86.9528 14.9742C86.4752 15.0786 86.0389 15.3227 85.6984 15.6758C85.3579 16.0289 85.1285 16.4753 85.039 16.9592C84.9494 17.443 85.0036 17.9428 85.1948 18.3957C85.386 18.8487 85.7057 19.2347 86.1138 19.5055C86.5219 19.7762 87.0003 19.9196 87.489 19.9177C87.8237 19.932 88.1577 19.8749 88.469 19.7501C88.7802 19.6253 89.0618 19.4356 89.2952 19.1936C89.5286 18.9515 89.7086 18.6625 89.8233 18.3454C89.938 18.0284 89.9849 17.6905 89.9609 17.3539Z" fill="#1D2130"/>
<path d="M102.72 19.4515C102.72 21.867 100.616 22.8946 98.3863 22.8946C97.4768 22.977 96.5636 22.7829 95.7648 22.3372C94.966 21.8915 94.3183 21.2147 93.9053 20.3944L96.6192 18.8477C96.7267 19.2257 96.9598 19.555 97.2795 19.7807C97.5993 20.0063 97.9863 20.1145 98.3758 20.0872C99.1226 20.0872 99.5013 19.8541 99.5013 19.4303C99.5013 18.2756 94.3787 18.89 94.3787 15.2563C94.3787 12.968 96.2931 11.8238 98.4599 11.8238C99.2836 11.7867 100.102 11.9749 100.828 12.3685C101.554 12.762 102.16 13.3463 102.583 14.0592L99.8694 15.4999C99.7495 15.2266 99.5536 14.9942 99.3054 14.8306C99.0571 14.667 98.7671 14.5794 98.4704 14.5783C97.9235 14.5783 97.5974 14.7901 97.5974 15.1609C97.5974 16.3687 102.72 15.5741 102.72 19.4515Z" fill="#1D2130"/>
<path d="M114.154 12.1099V22.598H110.998V21.6128C110.64 22.0489 110.184 22.394 109.669 22.6204C109.154 22.8467 108.593 22.9479 108.032 22.9158C105.928 22.9158 104.129 21.4009 104.129 18.5723V12.1099H107.285V18.0955C107.26 18.3458 107.29 18.5985 107.371 18.8361C107.453 19.0738 107.585 19.2908 107.758 19.4721C107.931 19.6534 108.141 19.7947 108.373 19.8863C108.606 19.9779 108.855 20.0175 109.105 20.0025C110.241 20.0025 111.04 19.3244 111.04 17.8837V12.1099H114.154Z" fill="#1D2130"/>
<path d="M132.035 16.1568V22.5979H128.88V16.4322C128.88 15.3728 128.385 14.716 127.386 14.716C126.387 14.716 125.756 15.447 125.756 16.6865V22.5979H122.6V16.4322C122.6 15.3728 122.106 14.716 121.106 14.716C120.107 14.716 119.476 15.447 119.476 16.6865V22.5979H116.32V12.1099H119.476V13.0739C119.803 12.648 120.23 12.3107 120.718 12.0925C121.206 11.8742 121.741 11.7819 122.274 11.8238C122.808 11.7958 123.339 11.908 123.817 12.1495C124.295 12.3909 124.702 12.7533 124.998 13.201C125.345 12.7332 125.804 12.3616 126.332 12.1207C126.859 11.8799 127.439 11.7777 128.017 11.8238C130.479 11.8238 132.035 13.54 132.035 16.1568Z" fill="#1D2130"/>
<path d="M14.7002 4.53517V0.0327148H0.605225V30.9672H14.7002V26.4648C11.8128 26.4648 9.04373 25.3096 7.00206 23.2533C4.9604 21.197 3.8134 18.408 3.8134 15.5C3.8134 12.5919 4.9604 9.80299 7.00206 7.74669C9.04373 5.69039 11.8128 4.53517 14.7002 4.53517Z" fill="#1D2130"/>
<path d="M14.7002 4.53517V26.4648C17.5875 26.4648 20.3565 25.3096 22.3982 23.2533C24.4399 21.197 25.5869 18.408 25.5869 15.5C25.5869 12.5919 24.4399 9.80299 22.3982 7.74669C20.3565 5.69039 17.5875 4.53517 14.7002 4.53517Z" fill="#1D2130"/>
<path d="M134.686 12.0463C135.964 12.0463 137 11.0028 137 9.71562C137 8.42842 135.964 7.38493 134.686 7.38493C133.408 7.38493 132.372 8.42842 132.372 9.71562C132.372 11.0028 133.408 12.0463 134.686 12.0463Z" fill="#1D2130"/>
</g>
</svg>
