<svg width="138" height="31" viewBox="0 0 138 31" fill="none" xmlns="http://www.w3.org/2000/svg">
<g id="Logo" opacity="0.6">
<path d="M33.6001 7.28961H36.7557V22.598H33.6001V7.28961Z" fill="#1D2130"/>
<path d="M38.5228 17.3539C38.5228 16.2525 38.8475 15.1759 39.4557 14.2606C40.0639 13.3453 40.9282 12.6325 41.9391 12.2124C42.9501 11.7924 44.062 11.6842 45.1341 11.9014C46.2061 12.1185 47.1901 12.6514 47.9611 13.4325C48.7321 14.2135 49.2556 15.2075 49.4651 16.2885C49.6746 17.3694 49.5607 18.4887 49.1379 19.5045C48.7151 20.5202 48.0024 21.3866 47.0901 21.9939C46.1778 22.6012 45.107 22.9221 44.0135 22.9158C43.2882 22.9215 42.5691 22.7813 41.8983 22.5034C41.2275 22.2255 40.6186 21.8155 40.1072 21.2975C39.5957 20.7795 39.1922 20.1638 38.9201 19.4866C38.6481 18.8094 38.513 18.0844 38.5228 17.3539ZM46.4328 17.3539C46.4204 16.8791 46.2693 16.4185 45.9983 16.0297C45.7274 15.641 45.3486 15.3413 44.9094 15.1682C44.4703 14.9951 43.9902 14.9562 43.5292 15.0565C43.0682 15.1567 42.6468 15.3916 42.3177 15.7318C41.9886 16.072 41.7664 16.5024 41.6788 16.9691C41.5913 17.4359 41.6423 17.9182 41.8255 18.3559C42.0088 18.7936 42.3161 19.1671 42.709 19.4298C43.1019 19.6925 43.563 19.8327 44.0346 19.8329C44.3557 19.8392 44.6746 19.7787 44.9714 19.6553C45.2683 19.5318 45.5366 19.348 45.7597 19.1153C45.9828 18.8827 46.1559 18.6062 46.2681 18.3031C46.3803 18 46.4292 17.6769 46.4118 17.3539H46.4328Z" fill="#1D2130"/>
<path d="M61.9899 12.1099V22.0788C61.9899 25.5961 59.255 27.0898 56.4886 27.0898C55.5129 27.1705 54.5341 26.9752 53.6626 26.526C52.791 26.0768 52.0612 25.3915 51.5554 24.5473L54.2166 23.0005C54.4323 23.4384 54.7753 23.7997 55.2 24.0363C55.6247 24.2729 56.1109 24.3735 56.5938 24.3248C56.9015 24.363 57.2137 24.3322 57.5081 24.2347C57.8026 24.1372 58.072 23.9753 58.2971 23.7607C58.5223 23.5462 58.6975 23.2841 58.8104 22.9934C58.9232 22.7026 58.9709 22.3903 58.95 22.0788V21.1148C58.5828 21.5632 58.1168 21.9192 57.5892 22.1546C57.0615 22.39 56.4866 22.4983 55.9101 22.4708C54.5153 22.4708 53.1775 21.9128 52.1912 20.9194C51.2049 19.926 50.6508 18.5787 50.6508 17.1738C50.6508 15.769 51.2049 14.4216 52.1912 13.4283C53.1775 12.4349 54.5153 11.8768 55.9101 11.8768C56.4866 11.8494 57.0615 11.9576 57.5892 12.193C58.1168 12.4284 58.5828 12.7844 58.95 13.2328V12.1734L61.9899 12.1099ZM58.95 17.142C58.971 16.6352 58.8409 16.1336 58.5766 15.7018C58.3123 15.27 57.9258 14.9276 57.4667 14.7189C57.0077 14.5101 56.4971 14.4444 56.0007 14.5302C55.5043 14.616 55.0447 14.8494 54.681 15.2004C54.3174 15.5514 54.0663 16.0039 53.96 16.4998C53.8538 16.9957 53.8973 17.5122 54.0849 17.983C54.2724 18.4538 54.5956 18.8573 55.0127 19.1417C55.4298 19.426 55.9218 19.5782 56.4255 19.5787C56.7542 19.6025 57.0842 19.5567 57.3941 19.4441C57.7041 19.3315 57.9872 19.1547 58.2251 18.9251C58.463 18.6954 58.6504 18.4181 58.7753 18.111C58.9002 17.8039 58.9597 17.4738 58.95 17.142Z" fill="#1D2130"/>
<path d="M63.7675 17.3539C63.7675 16.2534 64.0916 15.1777 64.6989 14.2628C65.3061 13.3479 66.1692 12.6351 67.1789 12.2144C68.1886 11.7938 69.2995 11.6842 70.371 11.8997C71.4425 12.1152 72.4264 12.6459 73.1983 13.4248C73.9702 14.2037 74.4953 15.1958 74.7072 16.2754C74.9191 17.3549 74.8082 18.4736 74.3886 19.4897C73.9691 20.5058 73.2596 21.3737 72.3501 21.9836C71.4406 22.5934 70.3719 22.9179 69.2792 22.9158C68.5526 22.9229 67.8318 22.7838 67.1592 22.5066C66.4866 22.2295 65.8757 21.8199 65.3624 21.3019C64.849 20.7839 64.4435 20.1678 64.1696 19.4899C63.8958 18.812 63.759 18.0858 63.7675 17.3539ZM71.6775 17.3539C71.665 16.8786 71.5136 16.4176 71.2422 16.0286C70.9708 15.6397 70.5914 15.34 70.1516 15.1672C69.7119 14.9944 69.2312 14.9562 68.77 15.0573C68.3087 15.1584 67.8874 15.3944 67.5587 15.7357C67.23 16.0769 67.0086 16.5083 66.9223 16.9757C66.8359 17.4431 66.8885 17.9258 67.0733 18.3632C67.2581 18.8007 67.567 19.1735 67.9613 19.435C68.3556 19.6964 68.8177 19.8348 69.2897 19.8329C69.6108 19.8392 69.9298 19.7787 70.2266 19.6553C70.5235 19.5318 70.7918 19.348 71.0149 19.1153C71.238 18.8827 71.4111 18.6062 71.5233 18.3031C71.6355 18 71.6844 17.6769 71.667 17.3539H71.6775Z" fill="#1D2130"/>
<path d="M76.2531 9.30242C76.2531 8.92945 76.3629 8.56486 76.5687 8.25475C76.7744 7.94465 77.0668 7.70295 77.4089 7.56022C77.7511 7.41749 78.1275 7.38015 78.4907 7.45291C78.8539 7.52567 79.1875 7.70527 79.4494 7.969C79.7112 8.23272 79.8895 8.56873 79.9618 8.93452C80.034 9.30032 79.9969 9.67948 79.8552 10.0241C79.7135 10.3686 79.4735 10.6631 79.1656 10.8703C78.8577 11.0776 78.4958 11.1882 78.1254 11.1882C77.6306 11.1826 77.1575 10.9822 76.8076 10.6297C76.4576 10.2773 76.2586 9.80083 76.2531 9.30242ZM76.5582 12.1098H79.7138V22.5979H76.5582V12.1098Z" fill="#1D2130"/>
<path d="M93.2196 17.3539C93.255 18.0515 93.153 18.7491 92.9197 19.4068C92.6863 20.0645 92.326 20.6692 91.8597 21.1861C91.3934 21.7031 90.8302 22.122 90.2025 22.4188C89.5748 22.7157 88.895 22.8846 88.2022 22.9158C87.6144 22.9552 87.0253 22.8604 86.4789 22.6384C85.9324 22.4165 85.4429 22.0731 85.0466 21.6339V26.8144H81.8911V12.1099H85.0466V13.0952C85.4434 12.6573 85.9333 12.3155 86.4798 12.0953C87.0263 11.8752 87.6151 11.7824 88.2022 11.8239C88.8922 11.8552 89.5693 12.023 90.1949 12.3179C90.8204 12.6127 91.3822 13.0288 91.8481 13.5423C92.314 14.0558 92.6749 14.6567 92.9103 15.3107C93.1456 15.9647 93.2507 16.659 93.2196 17.3539ZM90.064 17.3539C90.0516 16.8619 89.8953 16.3845 89.6146 15.9816C89.3339 15.5787 88.9414 15.2681 88.4862 15.0889C88.0311 14.9097 87.5335 14.8698 87.0559 14.9742C86.5784 15.0786 86.142 15.3227 85.8016 15.6758C85.4611 16.0289 85.2317 16.4753 85.1421 16.9592C85.0525 17.443 85.1067 17.9428 85.2979 18.3957C85.4891 18.8487 85.8088 19.2347 86.2169 19.5055C86.6251 19.7762 87.1035 19.9196 87.5922 19.9177C87.9269 19.932 88.2608 19.8749 88.5721 19.7501C88.8834 19.6253 89.165 19.4356 89.3984 19.1936C89.6318 18.9515 89.8117 18.6625 89.9264 18.3454C90.0412 18.0284 90.088 17.6905 90.064 17.3539Z" fill="#1D2130"/>
<path d="M102.823 19.4515C102.823 21.867 100.719 22.8946 98.4894 22.8946C97.5799 22.977 96.6668 22.7829 95.868 22.3372C95.0692 21.8915 94.4214 21.2147 94.0085 20.3944L96.7223 18.8477C96.8298 19.2257 97.0629 19.555 97.3827 19.7807C97.7025 20.0063 98.0894 20.1145 98.4789 20.0872C99.2257 20.0872 99.6044 19.8541 99.6044 19.4303C99.6044 18.2756 94.4818 18.89 94.4818 15.2563C94.4818 12.968 96.3962 11.8238 98.5631 11.8238C99.3867 11.7867 100.205 11.9749 100.931 12.3685C101.657 12.762 102.264 13.3463 102.686 14.0592L99.9726 15.4999C99.8527 15.2266 99.6568 14.9942 99.4085 14.8306C99.1602 14.667 98.8702 14.5794 98.5736 14.5783C98.0266 14.5783 97.7005 14.7901 97.7005 15.1609C97.7005 16.3687 102.823 15.5741 102.823 19.4515Z" fill="#1D2130"/>
<path d="M114.257 12.1099V22.598H111.101V21.6128C110.743 22.0489 110.288 22.394 109.772 22.6204C109.257 22.8467 108.696 22.9479 108.135 22.9158C106.031 22.9158 104.233 21.4009 104.233 18.5723V12.1099H107.388V18.0955C107.363 18.3458 107.393 18.5985 107.474 18.8361C107.556 19.0738 107.688 19.2908 107.861 19.4721C108.034 19.6534 108.244 19.7947 108.477 19.8863C108.709 19.9779 108.959 20.0175 109.208 20.0025C110.344 20.0025 111.143 19.3244 111.143 17.8837V12.1099H114.257Z" fill="#1D2130"/>
<path d="M132.138 16.1568V22.5979H128.983V16.4322C128.983 15.3728 128.488 14.716 127.489 14.716C126.49 14.716 125.859 15.447 125.859 16.6865V22.5979H122.703V16.4322C122.703 15.3728 122.209 14.716 121.21 14.716C120.21 14.716 119.579 15.447 119.579 16.6865V22.5979H116.424V12.1099H119.579V13.0739C119.906 12.648 120.333 12.3107 120.821 12.0925C121.31 11.8742 121.844 11.7819 122.377 11.8238C122.911 11.7958 123.443 11.908 123.92 12.1495C124.398 12.3909 124.805 12.7533 125.101 13.201C125.448 12.7332 125.907 12.3616 126.435 12.1207C126.963 11.8799 127.543 11.7777 128.12 11.8238C130.582 11.8238 132.138 13.54 132.138 16.1568Z" fill="#1D2130"/>
<path d="M14.8033 4.53517V0.0327148H0.708374V30.9672H14.8033V26.4648C11.916 26.4648 9.14688 25.3096 7.10521 23.2533C5.06355 21.197 3.91655 18.408 3.91655 15.5C3.91655 12.5919 5.06355 9.80299 7.10521 7.74669C9.14688 5.69039 11.916 4.53517 14.8033 4.53517Z" fill="#1D2130"/>
<path d="M14.8033 4.53517V26.4648C17.6907 26.4648 20.4597 25.3096 22.5014 23.2533C24.543 21.197 25.69 18.408 25.69 15.5C25.69 12.5919 24.543 9.80299 22.5014 7.74669C20.4597 5.69039 17.6907 4.53517 14.8033 4.53517Z" fill="#1D2130"/>
<path d="M134.789 12.0463C136.067 12.0463 137.103 11.0028 137.103 9.71562C137.103 8.42842 136.067 7.38493 134.789 7.38493C133.511 7.38493 132.475 8.42842 132.475 9.71562C132.475 11.0028 133.511 12.0463 134.789 12.0463Z" fill="#1D2130"/>
</g>
</svg>
