<svg width="142" height="29" viewBox="0 0 142 29" fill="none" xmlns="http://www.w3.org/2000/svg">
<g id="Logo" opacity="0.6">
<path d="M21.29 12.7902C20.8935 13.1904 20.5899 13.6733 20.4007 14.2046C20.2115 14.7358 20.1415 15.3024 20.1956 15.864L20.1768 15.8451C20.2324 16.506 20.1436 17.1712 19.9164 17.7942C19.6893 18.4172 19.3293 18.9829 18.8617 19.4519C18.3941 19.921 17.83 20.282 17.209 20.5098C16.5879 20.7377 15.9247 20.8268 15.2657 20.771L15.2845 20.7899C14.4963 20.7163 13.7045 20.8883 13.0173 21.2826C12.3301 21.6768 11.7809 22.2741 11.4445 22.9929C11.1081 23.7117 11.0009 24.5171 11.1376 25.2992C11.2742 26.0814 11.6481 26.8022 12.2081 27.3635C12.7682 27.9247 13.4872 28.299 14.2671 28.4354C15.047 28.5717 15.8499 28.4635 16.5662 28.1254C17.2825 27.7874 17.8775 27.2359 18.2699 26.5463C18.6624 25.8566 18.8332 25.0624 18.7591 24.2718L18.779 24.2907C18.7234 23.6297 18.8122 22.9645 19.0394 22.3416C19.2665 21.7186 19.6264 21.1529 20.0941 20.6838C20.5617 20.2148 21.1257 19.8537 21.7468 19.6259C22.3679 19.3981 23.0311 19.309 23.6901 19.3648L23.6702 19.3459C24.3141 19.404 24.9622 19.2981 25.5545 19.038C26.1467 18.778 26.6639 18.3722 27.0582 17.8582C27.4525 17.3443 27.711 16.7389 27.8098 16.098C27.9087 15.4572 27.8447 14.8017 27.6237 14.1923C27.4027 13.5829 27.032 13.0393 26.5458 12.6119C26.0596 12.1844 25.4737 11.8871 24.8424 11.7472C24.211 11.6074 23.5548 11.6297 22.9343 11.812C22.3139 11.9944 21.7494 12.3308 21.2931 12.7902H21.29Z" fill="#1D2130"/>
<path d="M13.5718 18.3153L13.5519 18.2964C14.112 18.353 14.6776 18.2841 15.2079 18.0946C15.7381 17.9051 16.2198 17.5997 16.618 17.2006C17.0162 16.8015 17.321 16.3186 17.5103 15.7869C17.6997 15.2552 17.7688 14.6879 17.7128 14.1261L17.7327 14.145C17.6771 13.484 17.7659 12.8188 17.9931 12.1958C18.2202 11.5729 18.5802 11.0071 19.0478 10.5381C19.5154 10.0691 20.0795 9.70802 20.7005 9.4802C21.3216 9.25238 21.9848 9.16326 22.6438 9.21905L22.6239 9.20017C23.4123 9.27442 24.2042 9.10295 24.8918 8.70915C25.5794 8.31534 26.1292 7.71838 26.4661 6.99967C26.803 6.28096 26.9107 5.47551 26.7744 4.69317C26.6382 3.91083 26.2646 3.18969 25.7047 2.62812C25.1449 2.06654 24.4259 1.69187 23.6459 1.5552C22.8659 1.41854 22.0629 1.52654 21.3463 1.86447C20.6298 2.20239 20.0346 2.7538 19.642 3.44348C19.2494 4.13315 19.0784 4.92752 19.1525 5.71823L19.1336 5.69829C19.1895 6.3593 19.1007 7.02457 18.8737 7.64762C18.6466 8.27068 18.2866 8.83651 17.819 9.30558C17.3513 9.77466 16.7872 10.1357 16.166 10.3634C15.5448 10.5912 14.8816 10.6802 14.2226 10.6242L14.2414 10.6441C13.6813 10.5875 13.1157 10.6565 12.5854 10.846C12.0551 11.0355 11.5735 11.3409 11.1753 11.74C10.7771 12.1391 10.4723 12.6219 10.283 13.1537C10.0936 13.6854 10.0244 14.2527 10.0805 14.8145L10.0616 14.7956C10.1171 15.4565 10.0281 16.1216 9.80088 16.7445C9.57368 17.3674 9.21373 17.9331 8.74615 18.4021C8.27856 18.8711 7.71459 19.2321 7.09358 19.46C6.47257 19.6879 5.80947 19.7771 5.15053 19.7215L5.16936 19.7404C4.38103 19.6662 3.58906 19.8376 2.90146 20.2314C2.21386 20.6252 1.66411 21.2222 1.3272 21.9409C0.990286 22.6596 0.882613 23.4651 1.01887 24.2474C1.15512 25.0298 1.52866 25.7509 2.08855 26.3125C2.64843 26.874 3.3674 27.2487 4.14739 27.3854C4.92737 27.522 5.7304 27.414 6.44694 27.0761C7.16349 26.7382 7.75866 26.1868 8.15127 25.4971C8.54389 24.8074 8.71485 24.0131 8.64081 23.2224L8.66069 23.2412C8.60506 22.5803 8.69392 21.9151 8.92105 21.2921C9.14819 20.6691 9.50813 20.1034 9.97576 19.6344C10.4434 19.1653 11.0074 18.8043 11.6285 18.5765C12.2496 18.3486 12.9128 18.2595 13.5718 18.3153Z" fill="#1D2130"/>
<path d="M6.55987 16.2092C6.95642 15.8091 7.26003 15.3262 7.44902 14.7949C7.63802 14.2636 7.70774 13.6969 7.6532 13.1355L7.67308 13.1544C7.61741 12.4932 7.70631 11.8278 7.93356 11.2047C8.16082 10.5816 8.52095 10.0157 8.98881 9.54662C9.45668 9.07754 10.021 8.71656 10.6423 8.48888C11.2637 8.26121 11.9271 8.17232 12.5863 8.22844L12.5664 8.20956C13.3544 8.28361 14.1461 8.11204 14.8334 7.71827C15.5207 7.32449 16.0701 6.72767 16.4068 6.00918C16.7435 5.2907 16.8511 4.48554 16.7148 3.70349C16.5786 2.92145 16.2052 2.20059 15.6455 1.63921C15.0858 1.07784 14.3671 0.703291 13.5874 0.566633C12.8077 0.429976 12.005 0.537866 11.2887 0.87559C10.5724 1.21331 9.97733 1.76443 9.58474 2.45379C9.19215 3.14315 9.0211 3.93719 9.09493 4.72762L9.0761 4.70873C9.13173 5.3697 9.04287 6.03489 8.81574 6.65786C8.5886 7.28083 8.22866 7.84658 7.76103 8.31562C7.29341 8.78466 6.72936 9.14568 6.10827 9.3735C5.48717 9.60132 4.82399 9.69044 4.16501 9.63465L4.18384 9.65354C3.53995 9.59562 2.8919 9.70166 2.29974 9.96183C1.70758 10.222 1.19048 10.6279 0.796347 11.1419C0.402215 11.6558 0.143805 12.2613 0.0450646 12.9021C-0.0536755 13.5429 0.0104481 14.1984 0.231494 14.8077C0.45254 15.4171 0.823356 15.9606 1.30958 16.3879C1.7958 16.8153 2.3817 17.1126 3.01298 17.2524C3.64427 17.3921 4.3005 17.3698 4.92089 17.1874C5.54128 17.0051 6.10574 16.6686 6.56196 16.2092H6.55987Z" fill="#1D2130"/>
<path d="M38.9695 5.74237H42.0768V20.9095H38.9695V5.74237Z" fill="#1D2130"/>
<path d="M43.8367 15.716C43.8323 14.626 44.1506 13.5593 44.7511 12.6509C45.3517 11.7425 46.2075 11.0333 47.2103 10.6132C48.213 10.193 49.3174 10.0808 50.3838 10.2908C51.4501 10.5008 52.4303 11.0234 53.2003 11.7926C53.9702 12.5618 54.4952 13.5429 54.7088 14.6116C54.9225 15.6803 54.815 16.7885 54.4002 17.7959C53.9853 18.8034 53.2817 19.6646 52.3785 20.2706C51.4753 20.8766 50.413 21.2001 49.3263 21.2002C48.605 21.2084 47.8892 21.0724 47.2209 20.7999C46.5526 20.5275 45.9451 20.1242 45.434 19.6136C44.9229 19.103 44.5184 18.4953 44.2441 17.8261C43.9698 17.1569 43.8313 16.4395 43.8367 15.716ZM51.7086 15.716C51.6957 15.2461 51.5449 14.7906 51.2752 14.4062C51.0056 14.0219 50.6289 13.7258 50.1924 13.555C49.7558 13.3842 49.2788 13.3462 48.8208 13.4459C48.3629 13.5455 47.9444 13.7784 47.6177 14.1153C47.291 14.4522 47.0705 14.8782 46.9839 15.3401C46.8973 15.802 46.9483 16.2793 47.1306 16.7122C47.313 17.1452 47.6185 17.5146 48.009 17.7744C48.3995 18.0341 48.8577 18.1726 49.3263 18.1726C49.6472 18.1812 49.9664 18.123 50.2638 18.0017C50.5612 17.8804 50.8303 17.6986 51.0541 17.4678C51.2779 17.237 51.4516 16.9622 51.5643 16.6606C51.6769 16.3591 51.7261 16.0375 51.7086 15.716Z" fill="#1D2130"/>
<path d="M67.2004 10.5214V20.3858C67.2004 23.8762 64.4864 25.3516 61.7316 25.3516C60.7617 25.4244 59.7905 25.2279 58.9246 24.7837C58.0587 24.3394 57.3314 23.6645 56.8226 22.833L59.4738 21.2957C59.6877 21.7291 60.0284 22.0866 60.4504 22.3205C60.8724 22.5544 61.3556 22.6534 61.8352 22.6043C62.1418 22.6469 62.4539 22.6198 62.7487 22.525C63.0434 22.4303 63.313 22.2703 63.5378 22.0569C63.7625 21.8435 63.9365 21.5821 64.0469 21.2921C64.1574 21.0021 64.2014 20.691 64.1757 20.3816V19.4319C63.8118 19.8785 63.3487 20.2333 62.8234 20.4678C62.2981 20.7024 61.7253 20.8101 61.151 20.7825C59.7844 20.7393 58.4882 20.1644 57.5367 19.1795C56.5853 18.1946 56.0532 16.877 56.0532 15.5056C56.0532 14.1341 56.5853 12.8165 57.5367 11.8316C58.4882 10.8467 59.7844 10.2718 61.151 10.2286C61.7253 10.201 62.2981 10.3087 62.8234 10.5433C63.3487 10.7778 63.8118 11.1326 64.1757 11.5792V10.5193L67.2004 10.5214ZM64.1767 15.5071C64.1976 15.0048 64.0682 14.5078 63.805 14.0799C63.5419 13.652 63.1571 13.3129 62.7002 13.1063C62.2433 12.8996 61.7351 12.8348 61.2412 12.9202C60.7473 13.0057 60.2902 13.2374 59.9287 13.5856C59.5671 13.9338 59.3178 14.3826 59.2127 14.8742C59.1076 15.3657 59.1516 15.8776 59.339 16.3438C59.5264 16.8101 59.8486 17.2095 60.2642 17.4905C60.6798 17.7715 61.1697 17.9214 61.671 17.9208C61.9974 17.9436 62.3251 17.8976 62.6328 17.7858C62.9405 17.6739 63.2214 17.4986 63.4574 17.2713C63.6935 17.0439 63.8795 16.7694 64.0033 16.4656C64.1272 16.1618 64.1863 15.8353 64.1767 15.5071Z" fill="#1D2130"/>
<path d="M68.9602 15.716C68.9558 14.626 69.2741 13.5593 69.8746 12.6509C70.4752 11.7425 71.331 11.0333 72.3337 10.6132C73.3365 10.193 74.4409 10.0808 75.5073 10.2908C76.5736 10.5008 77.5538 11.0234 78.3238 11.7926C79.0937 12.5618 79.6187 13.5429 79.8323 14.6116C80.046 15.6803 79.9385 16.7885 79.5237 17.7959C79.1088 18.8034 78.4052 19.6646 77.502 20.2706C76.5987 20.8766 75.5365 21.2001 74.4498 21.2002C73.7285 21.2084 73.0127 21.0724 72.3444 20.7999C71.6761 20.5275 71.0686 20.1242 70.5575 19.6136C70.0464 19.103 69.6419 18.4953 69.3676 17.8261C69.0933 17.1569 68.9548 16.4395 68.9602 15.716ZM76.8321 15.716C76.8192 15.2461 76.6684 14.7906 76.3987 14.4062C76.1291 14.0219 75.7524 13.7258 75.3158 13.555C74.8793 13.3842 74.4023 13.3462 73.9443 13.4459C73.4864 13.5455 73.0679 13.7784 72.7412 14.1153C72.4145 14.4522 72.194 14.8782 72.1074 15.3401C72.0208 15.802 72.0718 16.2793 72.2542 16.7122C72.4365 17.1452 72.742 17.5146 73.1325 17.7744C73.523 18.0341 73.9812 18.1726 74.4498 18.1726C74.7707 18.1812 75.0899 18.123 75.3873 18.0017C75.6847 17.8804 75.9538 17.6986 76.1776 17.4678C76.4014 17.237 76.5751 16.9622 76.6878 16.6606C76.8004 16.3591 76.8496 16.0375 76.8321 15.716Z" fill="#1D2130"/>
<path d="M81.3885 7.7373C81.3885 7.36744 81.4979 7.00589 81.7028 6.69836C81.9076 6.39083 82.1988 6.15114 82.5395 6.0096C82.8801 5.86806 83.255 5.83103 83.6167 5.90319C83.9783 5.97534 84.3105 6.15345 84.5713 6.41498C84.832 6.67651 85.0096 7.00972 85.0815 7.37247C85.1535 7.73522 85.1166 8.11123 84.9754 8.45293C84.8343 8.79464 84.5954 9.0867 84.2888 9.29218C83.9822 9.49767 83.6217 9.60734 83.253 9.60734C82.76 9.60242 82.2886 9.40382 81.94 9.05418C81.5914 8.70454 81.3934 8.23174 81.3885 7.7373ZM81.7024 10.5214H84.8108V20.9105H81.6982L81.7024 10.5214Z" fill="#1D2130"/>
<path d="M98.228 15.7159C98.2639 16.4025 98.1641 17.0895 97.9344 17.7373C97.7047 18.3851 97.3496 18.981 96.8895 19.4906C96.4294 20.0003 95.8734 20.4137 95.2535 20.7071C94.6335 21.0005 93.9619 21.168 93.2771 21.2001C92.7013 21.2317 92.1257 21.1343 91.592 20.915C91.0584 20.6957 90.5801 20.3601 90.1917 19.9325V25.0651H87.0844V10.5214H90.1917V11.4973C90.5802 11.07 91.0586 10.7346 91.5922 10.5156C92.1259 10.2965 92.7014 10.1992 93.2771 10.2307C93.962 10.2627 94.6338 10.4302 95.2539 10.7236C95.874 11.017 96.4301 11.4305 96.8902 11.9403C97.3503 12.4501 97.7054 13.0461 97.935 13.6941C98.1646 14.3421 98.2642 15.0292 98.228 15.7159ZM95.1206 15.7159C95.1085 15.2297 94.9536 14.7579 94.6754 14.3595C94.3973 13.9611 94.0081 13.6539 93.5567 13.4763C93.1053 13.2986 92.6117 13.2585 92.1376 13.3608C91.6636 13.4632 91.2302 13.7035 90.8916 14.0517C90.5531 14.3999 90.3245 14.8406 90.2344 15.3185C90.1443 15.7964 90.1967 16.2903 90.3851 16.7385C90.5735 17.1866 90.8895 17.5691 91.2936 17.838C91.6976 18.1069 92.1718 18.2503 92.6567 18.2503C92.9896 18.2651 93.3219 18.2092 93.6317 18.0863C93.9416 17.9633 94.222 17.776 94.4547 17.5367C94.6873 17.2974 94.8669 17.0115 94.9817 16.6977C95.0965 16.3839 95.1438 16.0494 95.1206 15.7159Z" fill="#1D2130"/>
<path d="M107.817 17.7927C107.817 20.1822 105.746 21.2002 103.509 21.2002C102.606 21.2823 101.698 21.0906 100.904 20.6498C100.11 20.209 99.4661 19.5395 99.0555 18.7278L101.748 17.1904C101.856 17.5656 102.09 17.892 102.41 18.1151C102.73 18.3381 103.117 18.4444 103.505 18.4161C104.25 18.4161 104.624 18.1873 104.624 17.7728C104.624 16.6289 99.5274 17.2324 99.5274 13.6381C99.5274 11.3725 101.434 10.2307 103.588 10.2307C104.398 10.205 105.2 10.3977 105.91 10.7886C106.62 11.1795 107.213 11.7544 107.626 12.4534L104.975 13.8868C104.859 13.6147 104.665 13.3829 104.419 13.2204C104.172 13.0579 103.883 12.9717 103.588 12.9728C103.049 12.9728 102.717 13.1827 102.717 13.5542C102.722 14.739 107.817 13.9488 107.817 17.7927Z" fill="#1D2130"/>
<path d="M119.168 10.5214V20.9105H116.06V19.9335C115.702 20.3646 115.247 20.7043 114.732 20.9247C114.217 21.1451 113.658 21.2398 113.099 21.2012C111.007 21.2012 109.228 19.7058 109.228 16.8987V10.5214H112.336V16.4422C112.31 16.6896 112.338 16.9397 112.418 17.1752C112.498 17.4106 112.628 17.6257 112.8 17.8055C112.971 17.9853 113.18 18.1255 113.411 18.2162C113.642 18.307 113.89 18.3462 114.137 18.3311C115.277 18.3311 116.063 17.6668 116.063 16.1914V10.5246L119.168 10.5214Z" fill="#1D2130"/>
<path d="M136.985 14.5312V20.9095H133.878V14.8009C133.878 13.762 133.381 13.0977 132.387 13.0977C131.351 13.0977 130.771 13.825 130.771 15.0507V20.9095H127.664V14.8009C127.664 13.762 127.167 13.0977 126.172 13.0977C125.137 13.0977 124.557 13.825 124.557 15.0507V20.9095H121.45V10.5204H124.557V11.4754C124.879 11.0517 125.302 10.7157 125.787 10.4981C126.272 10.2805 126.803 10.1882 127.333 10.2297C127.864 10.2036 128.394 10.3162 128.869 10.5563C129.345 10.7965 129.75 11.1562 130.046 11.6002C130.39 11.1357 130.846 10.7663 131.371 10.5266C131.897 10.2869 132.474 10.1848 133.049 10.2297C135.427 10.2308 136.985 11.9339 136.985 14.5312Z" fill="#1D2130"/>
<path d="M139.613 10.4574C140.887 10.4574 141.919 9.42188 141.919 8.14451C141.919 6.86713 140.887 5.83162 139.613 5.83162C138.34 5.83162 137.307 6.86713 137.307 8.14451C137.307 9.42188 138.34 10.4574 139.613 10.4574Z" fill="#1D2130"/>
</g>
</svg>
