<svg width="126" height="29" viewBox="0 0 126 29" fill="none" xmlns="http://www.w3.org/2000/svg">
<g id="Logo" opacity="0.6">
<path d="M37.0752 8.2888H40.2308V21.0181H37.0752V8.2888ZM41.4825 16.2118C41.4825 13.0636 43.4179 11.1852 46.4052 11.1852C49.3925 11.1852 51.3279 13.0636 51.3279 16.2118C51.3279 19.36 49.4346 21.249 46.4052 21.249C43.3759 21.249 41.4825 19.4125 41.4825 16.2118ZM48.1618 16.2118C48.1618 14.4803 47.4781 13.4624 46.4052 13.4624C45.3323 13.4624 44.6591 14.5118 44.6591 16.2118C44.6591 17.9119 45.3218 18.9403 46.4052 18.9403C47.4886 18.9403 48.1618 17.9748 48.1618 16.2223V16.2118ZM52.5166 21.6373H55.5459C55.6901 21.9568 55.9338 22.2214 56.2409 22.3915C56.5479 22.5617 56.9018 22.6284 57.2499 22.5817C58.4491 22.5817 59.0802 21.9311 59.0802 20.9866V19.2236H59.0171C58.7656 19.764 58.3577 20.2167 57.8458 20.5235C57.334 20.8303 56.7417 20.977 56.1455 20.9446C53.8419 20.9446 52.3167 19.1921 52.3167 16.1803C52.3167 13.1685 53.7683 11.2691 56.1875 11.2691C56.8025 11.2451 57.41 11.4091 57.9289 11.7392C58.4478 12.0693 58.8532 12.5497 59.0907 13.1161V11.3636H62.2463V20.9132C62.2463 23.2114 60.2162 24.6386 57.2184 24.6386C54.4309 24.6386 52.6954 23.3898 52.5166 21.6477V21.6373ZM59.0907 16.2013C59.0907 14.6692 58.3859 13.7037 57.271 13.7037C56.156 13.7037 55.4723 14.6587 55.4723 16.2013C55.4723 17.744 56.1455 18.615 57.271 18.615C58.3965 18.615 59.0907 17.7649 59.0907 16.2118V16.2013ZM63.4349 16.2013C63.4349 13.0531 65.3703 11.1747 68.3576 11.1747C71.3449 11.1747 73.2908 13.0531 73.2908 16.2013C73.2908 19.3495 71.3975 21.2385 68.3576 21.2385C65.3177 21.2385 63.4349 19.4125 63.4349 16.2118V16.2013ZM70.1142 16.2013C70.1142 14.4698 69.4305 13.4519 68.3576 13.4519C67.2847 13.4519 66.6641 14.5118 66.6641 16.2223C66.6641 17.9328 67.3268 18.9508 68.3997 18.9508C69.4726 18.9508 70.1142 17.9748 70.1142 16.2223V16.2013ZM74.4899 9.07585C74.4817 8.75799 74.5682 8.44484 74.7385 8.1761C74.9089 7.90735 75.1553 7.69511 75.4467 7.56629C75.7381 7.43746 76.0612 7.39785 76.3752 7.45248C76.6892 7.5071 76.9798 7.6535 77.2103 7.87312C77.4408 8.09274 77.6007 8.37568 77.6698 8.68609C77.7389 8.99649 77.7141 9.32037 77.5984 9.61668C77.4828 9.91298 77.2816 10.1684 77.0203 10.3505C76.7591 10.5325 76.4495 10.6331 76.1308 10.6395C75.9196 10.6539 75.7077 10.6247 75.5083 10.5535C75.309 10.4824 75.1265 10.3709 74.9724 10.226C74.8183 10.0811 74.6959 9.90605 74.6129 9.71173C74.5298 9.51741 74.488 9.30807 74.4899 9.09684V9.07585ZM74.4899 11.3845H77.6455V21.0181H74.4899V11.3845ZM89.1003 16.2013C89.1003 19.3495 87.7013 21.144 85.3031 21.144C84.6881 21.1834 84.0759 21.0334 83.5491 20.7144C83.0224 20.3953 82.6065 19.9226 82.3579 19.36H82.2948V24.1034H79.1392V11.3636H82.2948V13.0846H82.3579C82.595 12.5128 83.0029 12.0277 83.5261 11.6954C84.0493 11.363 84.6624 11.1995 85.282 11.2271C87.7013 11.2691 89.1424 13.0741 89.1424 16.2223L89.1003 16.2013ZM85.9447 16.2013C85.9447 14.6692 85.24 13.6932 84.1355 13.6932C83.0311 13.6932 82.3263 14.6797 82.3158 16.2013C82.3053 17.723 83.0311 18.6989 84.1355 18.6989C85.24 18.6989 85.9447 17.744 85.9447 16.2223V16.2013ZM94.5174 11.1642C97.1365 11.1642 98.7248 12.4025 98.7985 14.3859H95.9269C95.9269 13.7037 95.3589 13.2735 94.4858 13.2735C93.6128 13.2735 93.2236 13.6093 93.2236 14.1025C93.2236 14.5957 93.5707 14.7531 94.2755 14.9001L96.295 15.3093C98.2199 15.7186 99.0404 16.4952 99.0404 17.9538C99.0404 19.9477 97.2207 21.228 94.5384 21.228C91.8562 21.228 90.0996 19.9477 89.9628 17.9853H93.0027C93.0974 18.6989 93.6654 19.1187 94.591 19.1187C95.5167 19.1187 95.9374 18.8143 95.9374 18.3106C95.9374 17.8069 95.6429 17.702 94.8855 17.5446L93.0658 17.1563C91.183 16.768 90.1942 15.7711 90.1942 14.3019C90.2153 12.413 91.9088 11.1852 94.5174 11.1852V11.1642ZM109.57 20.9971H106.53V19.2026H106.467C106.299 19.8051 105.931 20.3325 105.422 20.6971C104.913 21.0617 104.294 21.2416 103.669 21.207C103.189 21.2342 102.709 21.1584 102.262 20.9847C101.814 20.8111 101.409 20.5436 101.074 20.2004C100.739 19.8572 100.482 19.4462 100.32 18.9953C100.158 18.5444 100.094 18.064 100.134 17.5865V11.3636H103.29V16.8625C103.29 18.0063 103.879 18.615 104.857 18.615C105.087 18.6154 105.313 18.567 105.523 18.4728C105.732 18.3787 105.918 18.2411 106.069 18.0691C106.221 17.8972 106.334 17.695 106.4 17.476C106.467 17.257 106.486 17.0264 106.456 16.7995V11.3636H109.612L109.57 20.9971ZM111.095 11.3636H114.145V13.221H114.208C114.376 12.6265 114.736 12.1042 115.233 11.7358C115.73 11.3674 116.335 11.1737 116.954 11.1852C117.583 11.1349 118.209 11.3229 118.706 11.7117C119.203 12.1006 119.535 12.6619 119.636 13.284H119.699C119.89 12.6553 120.285 12.1079 120.822 11.7279C121.359 11.3479 122.007 11.157 122.665 11.1852C123.094 11.1708 123.522 11.2466 123.92 11.4078C124.317 11.569 124.677 11.8118 124.974 12.1206C125.272 12.4294 125.501 12.7972 125.647 13.2001C125.793 13.603 125.852 14.0321 125.821 14.4593V21.0181H122.665V15.2988C122.665 14.2494 122.192 13.7667 121.308 13.7667C121.111 13.765 120.916 13.8056 120.736 13.8855C120.556 13.9655 120.395 14.083 120.265 14.2302C120.134 14.3774 120.037 14.5509 119.979 14.7388C119.921 14.9268 119.905 15.1249 119.93 15.3198V21.0181H116.933V15.2569C116.933 14.2914 116.459 13.7667 115.597 13.7667C115.397 13.7668 115.2 13.809 115.019 13.8906C114.837 13.9721 114.675 14.0912 114.543 14.24C114.41 14.3887 114.311 14.5638 114.252 14.7535C114.192 14.9433 114.174 15.1434 114.198 15.3408V21.0181H111.042L111.095 11.3636Z" fill="#1D2130"/>
<path d="M28.2501 8.86602C27.7148 7.64489 27.0063 6.50689 26.1464 5.48694C24.8752 3.93417 23.2888 2.66759 21.4916 1.77057C19.6943 0.87355 17.7271 0.366424 15.7193 0.282567C13.7115 0.198711 11.7086 0.540025 9.84255 1.28405C7.97649 2.02807 6.28952 3.15794 4.89267 4.59927C3.49582 6.04061 2.42076 7.76074 1.73826 9.64645C1.05576 11.5322 0.781282 13.5407 0.932899 15.5399C1.08452 17.539 1.65879 19.4835 2.61792 21.2453C3.57705 23.0071 4.89928 24.5462 6.49761 25.7615C7.52318 26.5568 8.6564 27.2034 9.86357 27.6819C11.5561 28.3739 13.3674 28.7303 15.1965 28.7313C18.9721 28.723 22.5903 27.2215 25.258 24.556C27.9258 21.8906 29.4254 18.2786 29.4282 14.5118C29.431 12.5689 29.0298 10.6465 28.2501 8.86602ZM15.186 3.16774C16.8285 3.16757 18.4512 3.52573 19.9404 4.21715C19.5773 4.37369 19.1955 4.48302 18.8044 4.54247C17.5175 4.72831 16.3254 5.32436 15.406 6.24164C14.4866 7.15892 13.8891 8.34824 13.7029 9.63209C13.6211 10.3521 13.2929 11.022 12.7736 11.5286C12.2543 12.0352 11.5757 12.3476 10.8523 12.413C9.56546 12.5989 8.37336 13.1949 7.45393 14.1122C6.53451 15.0295 5.93707 16.2188 5.75079 17.5026C5.68772 18.1873 5.39493 18.8306 4.91982 19.3286C4.10005 17.6005 3.73179 15.6936 3.84931 13.7854C3.96682 11.8771 4.56629 10.0295 5.59192 8.41452C6.61756 6.79953 8.03603 5.46964 9.71533 4.5486C11.3946 3.62757 13.2802 3.14533 15.1965 3.14675L15.186 3.16774ZM6.48709 21.8577C6.61332 21.7423 6.73954 21.6373 6.86576 21.5114C7.80156 20.6062 8.40223 19.4114 8.56978 18.1218C8.63771 17.3969 8.96212 16.7198 9.4849 16.2119C9.98795 15.6894 10.6651 15.3685 11.3888 15.3094C12.6756 15.1235 13.8677 14.5275 14.7872 13.6102C15.7066 12.6929 16.304 11.5036 16.4903 10.2198C16.5358 9.46158 16.8619 8.74728 17.4054 8.21539C17.9209 7.70312 18.6044 7.39382 19.3303 7.34438C20.5125 7.18211 21.6151 6.65777 22.4859 5.84373C23.4774 6.66444 24.3176 7.65175 24.9683 8.76109C24.9283 8.81497 24.8825 8.86425 24.8316 8.908C24.3295 9.43501 23.6532 9.76302 22.9277 9.83148C21.6395 10.0141 20.4456 10.6091 19.5256 11.5269C18.6056 12.4448 18.0092 13.6359 17.8262 14.9211C17.752 15.6435 17.4298 16.3182 16.9142 16.8308C16.3985 17.3433 15.7211 17.6623 14.9967 17.7335C13.706 17.9179 12.5095 18.5128 11.5847 19.4297C10.66 20.3466 10.0564 21.5367 9.86357 22.8231C9.80696 23.336 9.63041 23.8285 9.34815 24.2608C8.26894 23.6216 7.30238 22.8097 6.48709 21.8577ZM15.186 25.9084C14.1186 25.9096 13.0564 25.7612 12.0304 25.4677C12.3814 24.8149 12.6095 24.1036 12.7036 23.3688C12.7773 22.648 13.098 21.9746 13.6115 21.4623C14.1251 20.9499 14.8001 20.63 15.5226 20.5564C16.8113 20.3727 18.0058 19.7775 18.9273 18.8601C19.8488 17.9426 20.4478 16.7522 20.6346 15.4668C20.7084 14.746 21.029 14.0726 21.5426 13.5602C22.0561 13.0479 22.7311 12.7279 23.4536 12.6544C24.4235 12.5285 25.3478 12.1683 26.1464 11.605C26.5898 13.2818 26.6423 15.0377 26.2999 16.738C25.9575 18.4383 25.2293 20.0377 24.1711 21.4135C23.1129 22.7894 21.7529 23.9052 20.1954 24.6752C18.6379 25.4453 16.9243 25.8492 15.186 25.8559V25.9084Z" fill="#1D2130"/>
</g>
</svg>
