<svg width="134" height="31" viewBox="0 0 134 31" fill="none" xmlns="http://www.w3.org/2000/svg">
<g id="Logo" opacity="0.6">
<path d="M38.3821 9.47656H41.7586V23.1189H38.3821V9.47656ZM43.105 17.9873C43.105 14.6082 45.2087 12.5828 48.3643 12.5828C51.5199 12.5828 53.6236 14.6082 53.6236 17.9873C53.6236 21.3663 51.5935 23.4127 48.3643 23.4127C45.1351 23.4127 43.105 21.4398 43.105 17.9873ZM50.2787 17.9873C50.2787 16.1298 49.5529 15.0384 48.3959 15.0384C47.2388 15.0384 46.5235 16.0878 46.5235 17.9873C46.5235 19.8867 47.2388 20.9256 48.3959 20.9256C49.5529 20.9256 50.2997 19.8867 50.2997 17.9977L50.2787 17.9873ZM54.97 23.822H58.2308C58.3792 24.1722 58.6385 24.4644 58.9689 24.6538C59.2994 24.8433 59.6829 24.9197 60.061 24.8714C61.3548 24.8714 62.028 24.1788 62.028 23.1503V21.2614H62.0385C61.7599 21.8496 61.3093 22.3398 60.746 22.6676C60.1828 22.9954 59.5333 23.1454 58.8829 23.0979C56.411 23.0979 54.7701 21.2194 54.7701 17.9873C54.7701 14.7551 56.3374 12.7402 58.9776 12.7402C59.6446 12.7046 60.3062 12.8762 60.8714 13.2315C61.4365 13.5867 61.8774 14.108 62.1332 14.7236H62.0385V12.8242H65.3834V23.0454C65.3834 25.5115 63.1956 27.0541 59.9769 27.0541C57.0527 27.0436 55.1804 25.7109 54.991 23.8325L54.97 23.822ZM62.0385 17.9873C62.0385 16.3397 61.2812 15.3008 60.082 15.3008C58.8829 15.3008 58.1466 16.3502 58.1466 17.9873C58.1466 19.6243 58.8724 20.5898 60.082 20.5898C61.2917 20.5898 62.0385 19.6978 62.0385 17.9873ZM66.7193 17.9873C66.7193 14.6082 68.823 12.5828 71.9786 12.5828C75.1342 12.5828 77.2379 14.6082 77.2379 17.9873C77.2379 21.3663 75.1973 23.4127 71.9786 23.4127C68.7599 23.4127 66.7403 21.4398 66.7403 17.9873H66.7193ZM73.893 17.9873C73.893 16.1298 73.1567 15.0384 72.0102 15.0384C70.8636 15.0384 70.1378 16.0878 70.1378 17.9873C70.1378 19.8867 70.8531 20.9256 72.0102 20.9256C73.1672 20.9256 73.914 19.8867 73.914 17.9977L73.893 17.9873ZM78.6053 10.3371C78.5906 9.99394 78.6792 9.65427 78.8596 9.36175C79.04 9.06923 79.304 8.83725 79.6176 8.69566C79.9313 8.55406 80.2802 8.50933 80.6195 8.5672C80.9588 8.62508 81.2731 8.78292 81.5217 9.02043C81.7704 9.25793 81.9422 9.56423 82.0149 9.89992C82.0877 10.2356 82.0581 10.5853 81.9299 10.9041C81.8018 11.2229 81.581 11.4962 81.296 11.6887C81.0109 11.8813 80.6746 11.9843 80.3304 11.9846C80.1104 11.9902 79.8914 11.9521 79.6863 11.8726C79.4812 11.7931 79.2939 11.6737 79.1354 11.5215C78.9769 11.3692 78.8502 11.187 78.7629 10.9855C78.6755 10.7839 78.6291 10.5671 78.6264 10.3476L78.6053 10.3371ZM78.6053 12.8137H82.0239V23.1608H78.6579L78.6053 12.8137ZM94.3202 17.9873C94.3202 21.3559 92.8055 23.3077 90.2284 23.3077C89.5686 23.3483 88.9123 23.186 88.348 22.8425C87.7836 22.4991 87.3386 21.9912 87.0728 21.3873H87.0097V26.4875H83.6332V12.8452H86.9887V14.6921H87.0518C87.3084 14.0764 87.7491 13.5546 88.3138 13.1978C88.8785 12.841 89.5397 12.6665 90.2074 12.6982C92.8581 12.6773 94.3833 14.6187 94.3833 17.9977L94.3202 17.9873ZM90.8806 17.9873C90.8806 16.3502 90.1127 15.2903 88.9241 15.2903C87.7355 15.2903 86.9887 16.3397 86.9781 17.9873C86.9676 19.6348 87.7355 20.6737 88.9241 20.6737C90.1127 20.6737 90.9437 19.6978 90.9437 17.9977L90.8806 17.9873ZM100.084 12.5723C102.914 12.5723 104.67 13.9051 104.692 16.0459H101.61C101.61 15.3008 100.989 14.839 100.063 14.839C99.1377 14.839 98.6959 15.1958 98.6959 15.731C98.6959 16.2662 99.0851 16.4341 99.8635 16.5915L102.03 17.0323C104.134 17.473 104.976 18.3126 104.976 19.8762C104.976 21.975 103.03 23.4022 100.137 23.4022C97.2443 23.4022 95.3615 22.017 95.2248 19.9077H98.496C98.5907 20.6737 99.2008 21.125 100.19 21.125C101.178 21.125 101.641 20.8102 101.641 20.254C101.641 19.6978 101.326 19.6033 100.516 19.4354L98.5592 19.0262C96.5291 18.5959 95.4667 17.536 95.4667 15.9514C95.5298 13.8946 97.2969 12.5828 100.147 12.5828L100.084 12.5723ZM116.283 23.1503H113.012V21.2089H112.949C112.766 21.8565 112.367 22.4225 111.818 22.8135C111.269 23.2046 110.603 23.3974 109.93 23.3602C109.421 23.3767 108.915 23.2858 108.445 23.0934C107.974 22.901 107.549 22.6115 107.199 22.2438C106.848 21.8762 106.579 21.4387 106.41 20.9601C106.241 20.4816 106.175 19.9727 106.217 19.4669V12.8242H109.593V18.7428C109.593 19.9601 110.235 20.6213 111.287 20.6213C111.533 20.6194 111.777 20.5648 112.001 20.461C112.225 20.3572 112.423 20.2068 112.584 20.0197C112.744 19.8327 112.863 19.6135 112.931 19.377C113 19.1404 113.016 18.8919 112.98 18.6484V12.8242H116.346L116.283 23.1503ZM117.913 12.8137H121.195V14.8076H121.269C121.45 14.1688 121.839 13.6081 122.374 13.2131C122.908 12.8182 123.559 12.6113 124.225 12.6248C124.892 12.5669 125.558 12.7595 126.091 13.1652C126.624 13.5708 126.986 14.1601 127.107 14.818H127.254C127.464 14.1566 127.887 13.583 128.458 13.1864C129.029 12.7898 129.715 12.5923 130.41 12.6248C130.871 12.6073 131.332 12.6872 131.76 12.8594C132.189 13.0316 132.576 13.2921 132.897 13.624C133.218 13.9559 133.464 14.3515 133.621 14.7852C133.778 15.2188 133.841 15.6806 133.807 16.1403V23.1608H130.41V17.0008C130.41 15.9514 129.915 15.3637 128.958 15.3637C128.746 15.3603 128.535 15.4026 128.341 15.4879C128.146 15.5732 127.973 15.6994 127.832 15.8579C127.691 16.0164 127.586 16.2034 127.525 16.4061C127.463 16.6088 127.446 16.8224 127.475 17.0323V23.1608H124.256V16.9693C124.256 15.9199 123.741 15.3637 122.815 15.3637C122.601 15.362 122.388 15.4061 122.192 15.4931C121.996 15.58 121.821 15.7078 121.679 15.8678C121.536 16.0278 121.43 16.2164 121.366 16.4209C121.303 16.6253 121.284 16.841 121.311 17.0533V23.1608H117.934L117.913 12.8137Z" fill="#1D2130"/>
<path d="M31.7027 10.3687C31.7028 8.28001 31.0706 6.24003 29.8889 4.51591C28.7072 2.79179 27.0312 1.46393 25.0803 0.706256C23.1293 -0.0514219 20.9945 -0.203588 18.9555 0.269686C16.9164 0.742961 15.0681 1.81961 13.6527 3.35861H0.525513V31H28.2421V18.0818C29.3299 17.1111 30.2004 15.9224 30.7967 14.5933C31.393 13.2643 31.7017 11.8248 31.7027 10.3687ZM26.3698 10.3687C26.3718 11.3695 26.0763 12.3485 25.5204 13.1817C24.9646 14.0148 24.1735 14.6648 23.2473 15.0492C22.321 15.4337 21.3013 15.5354 20.3171 15.3414C19.333 15.1474 18.4286 14.6665 17.7185 13.9595C17.0084 13.2525 16.5245 12.3513 16.328 11.3698C16.1315 10.3883 16.2313 9.37078 16.6147 8.44591C16.9982 7.52104 17.648 6.73045 18.482 6.17418C19.3159 5.61792 20.2966 5.321 21.2998 5.321C22.6426 5.321 23.9306 5.85247 24.8811 6.79878C25.8316 7.7451 26.367 9.02897 26.3698 10.3687ZM22.9091 25.6795H5.85845V8.67911H11.0546C10.9543 9.23682 10.9015 9.80203 10.8969 10.3687C10.8997 13.1204 11.9966 15.7586 13.9469 17.7044C15.8972 19.6502 18.5416 20.7445 21.2998 20.7473C21.839 20.7444 22.3772 20.6988 22.9091 20.6109V25.6795Z" fill="#1D2130"/>
</g>
</svg>
