<svg width="124" height="25" viewBox="0 0 124 25" fill="none" xmlns="http://www.w3.org/2000/svg">
<g id="Logo" opacity="0.6">
<path d="M40.1973 20.1889C39.575 20.2224 38.9595 20.0466 38.4501 19.6899C38.2372 19.5332 38.0659 19.3273 37.9511 19.0901C37.8363 18.8528 37.7813 18.5914 37.7909 18.3283V8.69296C37.7858 8.65217 37.7902 8.61076 37.8036 8.57189C37.8171 8.53301 37.8393 8.4977 37.8685 8.46863C37.8978 8.43957 37.9333 8.41751 37.9725 8.40415C38.0116 8.39079 38.0533 8.38648 38.0943 8.39153H39.852C40.0508 8.39153 40.145 8.49547 40.145 8.69296V17.5799C40.145 17.9749 40.3228 18.1724 40.689 18.1724C40.8442 18.1788 40.9995 18.1612 41.1493 18.1204C41.3586 18.1204 41.4737 18.1828 41.4841 18.3699L41.6411 19.6692C41.6486 19.707 41.6479 19.7461 41.639 19.7837C41.63 19.8212 41.6131 19.8565 41.5893 19.887C41.5655 19.9176 41.5354 19.9427 41.501 19.9607C41.4666 19.9787 41.4288 19.9891 41.39 19.9914C41.005 20.1177 40.6027 20.1843 40.1973 20.1889Z" fill="#1D2130"/>
<path d="M50.0842 19.0768C49.201 19.8017 48.0912 20.1983 46.9455 20.1983C45.7998 20.1983 44.69 19.8017 43.8068 19.0768C43.0305 18.2982 42.595 17.2467 42.595 16.1508C42.595 15.055 43.0305 14.0034 43.8068 13.2249C44.6917 12.5036 45.8009 12.1095 46.9455 12.1095C48.0901 12.1095 49.1993 12.5036 50.0842 13.2249C50.8426 14.0106 51.266 15.057 51.266 16.1456C51.266 17.2342 50.8426 18.2807 50.0842 19.0664V19.0768ZM45.4598 17.7047C45.8697 18.0736 46.4029 18.2779 46.956 18.2779C47.509 18.2779 48.0422 18.0736 48.4521 17.7047C48.823 17.281 49.0273 16.7384 49.0273 16.1768C49.0273 15.6152 48.823 15.0726 48.4521 14.6489C48.0422 14.28 47.509 14.0757 46.956 14.0757C46.4029 14.0757 45.8697 14.28 45.4598 14.6489C45.0889 15.0726 44.8846 15.6152 44.8846 16.1768C44.8846 16.7384 45.0889 17.281 45.4598 17.7047Z" fill="#1D2130"/>
<path d="M60.9441 12.3725C61.1429 12.3725 61.2371 12.4764 61.2371 12.6739V20.1265C61.2554 20.6295 61.1606 21.1302 60.9597 21.5923C60.7589 22.0544 60.4569 22.4662 60.0758 22.7978C59.2298 23.5144 58.1419 23.8858 57.0312 23.8372C56.028 23.8722 55.0382 23.6001 54.1959 23.0577C53.8362 22.823 53.5289 22.5174 53.2932 22.1597C53.0574 21.8021 52.8981 21.4002 52.8253 20.9788C52.8253 20.7709 52.8253 20.6774 53.1078 20.6774H54.8655C54.9401 20.6799 55.0124 20.7038 55.0737 20.7462C55.1349 20.7887 55.1825 20.8478 55.2108 20.9165C55.3247 21.2321 55.552 21.4949 55.849 21.6544C56.2108 21.8399 56.6136 21.9328 57.0207 21.9247C57.2664 21.9381 57.5123 21.9027 57.744 21.8206C57.9757 21.7385 58.1887 21.6113 58.3704 21.4466C58.5364 21.2742 58.6655 21.0702 58.7501 20.8469C58.8346 20.6236 58.8727 20.3856 58.8621 20.1473V19.4925C58.2328 19.9523 57.4669 20.1901 56.6859 20.1681C56.1394 20.1878 55.5945 20.0977 55.0839 19.903C54.5733 19.7083 54.1075 19.4131 53.7146 19.0351C52.9603 18.2599 52.5387 17.2238 52.5387 16.1456C52.5387 15.0673 52.9603 14.0313 53.7146 13.256C54.1094 12.8814 54.5757 12.589 55.086 12.3962C55.5963 12.2034 56.1403 12.1141 56.6859 12.1334C57.4895 12.1123 58.276 12.3655 58.9144 12.8506V12.6843C58.9096 12.6445 58.9138 12.6041 58.9267 12.5661C58.9396 12.528 58.9608 12.4933 58.9888 12.4645C59.0169 12.4356 59.051 12.4133 59.0888 12.3992C59.1266 12.3851 59.1671 12.3795 59.2074 12.3829L60.9441 12.3725ZM56.8847 18.3179C57.1543 18.3262 57.4224 18.2756 57.67 18.1696C57.9177 18.0637 58.1389 17.9049 58.3181 17.7047C58.6659 17.2584 58.8547 16.71 58.8547 16.1456C58.8547 15.5811 58.6659 15.0327 58.3181 14.5864C58.1396 14.3889 57.9197 14.2325 57.6739 14.1284C57.4281 14.0242 57.1623 13.9748 56.8952 13.9836C56.6226 13.9751 56.3513 14.0255 56.1002 14.1314C55.8491 14.2373 55.6242 14.3961 55.4409 14.5968C55.0556 15.0237 54.8529 15.583 54.876 16.1559C54.8571 16.7233 55.0552 17.2766 55.4305 17.7047C55.6141 17.9049 55.8392 18.0633 56.0902 18.1692C56.3411 18.275 56.6122 18.3258 56.8847 18.3179Z" fill="#1D2130"/>
<path d="M70.2661 19.0767C69.3811 19.7979 68.2719 20.1921 67.1274 20.1921C65.9828 20.1921 64.8736 19.7979 63.9886 19.0767C63.2296 18.2892 62.8059 17.2411 62.8059 16.1508C62.8059 15.0605 63.2296 14.0123 63.9886 13.2248C64.8744 12.5054 65.9833 12.1124 67.1274 12.1124C68.2714 12.1124 69.3803 12.5054 70.2661 13.2248C71.0244 14.0105 71.4478 15.057 71.4478 16.1456C71.4478 17.2341 71.0244 18.2806 70.2661 19.0663V19.0767ZM65.6312 17.7047C65.8318 17.8942 66.0682 18.0424 66.3269 18.1405C66.5855 18.2386 66.8611 18.2848 67.1378 18.2764C67.4128 18.2834 67.6864 18.2366 67.9432 18.1385C68.1999 18.0404 68.4346 17.893 68.6339 17.7047C68.9988 17.2781 69.1992 16.7365 69.1992 16.1767C69.1992 15.6169 68.9988 15.0754 68.6339 14.6488C68.4346 14.4605 68.1999 14.3131 67.9432 14.215C67.6864 14.1169 67.4128 14.07 67.1378 14.0771C66.8611 14.0687 66.5855 14.1148 66.3269 14.213C66.0682 14.3111 65.8318 14.4592 65.6312 14.6488C65.2663 15.0754 65.066 15.6169 65.066 16.1767C65.066 16.7365 65.2663 17.2781 65.6312 17.7047Z" fill="#1D2130"/>
<path d="M75.2253 10.6055C74.9487 10.846 74.5937 10.9786 74.2261 10.9786C73.8586 10.9786 73.5035 10.846 73.227 10.6055C73.1016 10.488 73.0017 10.3462 72.9334 10.1889C72.8651 10.0316 72.8299 9.86213 72.8299 9.69084C72.8299 9.51955 72.8651 9.35007 72.9334 9.19278C73.0017 9.03549 73.1016 8.89372 73.227 8.77616C73.5064 8.54168 73.8604 8.41304 74.2261 8.41304C74.5919 8.41304 74.9459 8.54168 75.2253 8.77616C75.3507 8.89372 75.4506 9.03549 75.5188 9.19278C75.5871 9.35007 75.6223 9.51955 75.6223 9.69084C75.6223 9.86213 75.5871 10.0316 75.5188 10.1889C75.4506 10.3462 75.3507 10.488 75.2253 10.6055ZM75.445 20.1889C74.8231 20.2192 74.2086 20.0437 73.6978 19.69C73.4881 19.5309 73.3199 19.3243 73.207 19.0874C73.0942 18.8505 73.04 18.5903 73.0491 18.3284V12.674C73.044 12.6332 73.0484 12.5918 73.0618 12.5529C73.0753 12.514 73.0975 12.4787 73.1267 12.4496C73.156 12.4206 73.1915 12.3985 73.2306 12.3852C73.2698 12.3718 73.3115 12.3675 73.3525 12.3725H75.1102C75.309 12.3725 75.4031 12.4765 75.4031 12.674V17.58C75.4031 17.975 75.581 18.1725 75.9367 18.1725C76.0954 18.1781 76.254 18.1606 76.4075 18.1205C76.6168 18.1205 76.7319 18.1828 76.7423 18.3699L76.8993 19.6692C76.9068 19.7071 76.9061 19.7461 76.8971 19.7837C76.8882 19.8213 76.8713 19.8565 76.8475 19.8871C76.8237 19.9176 76.7936 19.9427 76.7592 19.9607C76.7248 19.9787 76.687 19.9892 76.6482 19.9914C76.2598 20.1185 75.8539 20.1851 75.445 20.1889Z" fill="#1D2130"/>
<path d="M83.3651 12.1231C83.9141 12.1015 84.4619 12.1898 84.9759 12.3826C85.4899 12.5755 85.9597 12.869 86.3573 13.2457C87.0972 14.0345 87.5085 15.0726 87.5085 16.1508C87.5085 17.229 87.0972 18.2671 86.3573 19.056C85.9616 19.436 85.4924 19.7324 84.9781 19.9271C84.4638 20.1218 83.915 20.2109 83.3651 20.1889C82.5816 20.2062 81.8139 19.969 81.1785 19.5133V23.2656C81.1785 23.4631 81.0738 23.5566 80.8751 23.5566H79.1174C79.0773 23.5641 79.0359 23.5617 78.997 23.5497C78.958 23.5377 78.9225 23.5165 78.8937 23.4878C78.8649 23.4592 78.8435 23.4239 78.8314 23.3852C78.8193 23.3465 78.8169 23.3054 78.8244 23.2656V14.7424C78.8367 14.659 78.8293 14.574 78.8026 14.494C78.7759 14.414 78.7308 14.3413 78.6708 14.2817C78.6109 14.2222 78.5377 14.1773 78.4572 14.1508C78.3767 14.1243 78.2911 14.1169 78.2071 14.1292H77.8619C77.6317 14.1292 77.5166 14.046 77.5166 13.8797V12.6532C77.5112 12.5773 77.5321 12.5019 77.5759 12.4394C77.6197 12.377 77.6837 12.3314 77.7573 12.3102C78.1192 12.1795 78.5022 12.1161 78.8872 12.1231C79.2711 12.0893 79.6565 12.1702 79.9939 12.3554C80.3312 12.5406 80.6053 12.8216 80.7809 13.1625C81.1179 12.8238 81.5209 12.557 81.9652 12.3783C82.4095 12.1995 82.8858 12.1127 83.3651 12.1231ZM81.733 17.7047C81.9195 17.8984 82.1436 18.0526 82.3918 18.1579C82.6399 18.2632 82.9069 18.3175 83.1768 18.3175C83.4466 18.3175 83.7136 18.2632 83.9618 18.1579C84.2099 18.0526 84.434 17.8984 84.6206 17.7047C85.0135 17.2693 85.22 16.6988 85.196 16.1144C85.2234 15.5296 85.0165 14.9578 84.6206 14.5241C84.434 14.3304 84.2099 14.1763 83.9618 14.071C83.7136 13.9657 83.4466 13.9114 83.1768 13.9114C82.9069 13.9114 82.6399 13.9657 82.3918 14.071C82.1436 14.1763 81.9195 14.3304 81.733 14.5241C81.3523 14.9655 81.1541 15.5337 81.1785 16.1144C81.1572 16.6947 81.355 17.2619 81.733 17.7047Z" fill="#1D2130"/>
<path d="M92.4463 20.1889C91.5071 20.2272 90.5758 20.004 89.7575 19.5444C89.4292 19.348 89.1496 19.0806 88.9395 18.7621C88.7294 18.4436 88.5941 18.0822 88.5439 17.7047C88.5439 17.4968 88.6171 17.3928 88.8473 17.3928H90.3852C90.4584 17.3957 90.5294 17.4185 90.5903 17.4589C90.6512 17.4992 90.6997 17.5555 90.7305 17.6215C90.9502 18.1828 91.5256 18.4634 92.4463 18.4634C92.7675 18.478 93.0873 18.4138 93.3775 18.2763C93.4776 18.2314 93.5636 18.1603 93.6263 18.0706C93.6889 17.9809 93.7259 17.876 93.7332 17.767C93.7332 17.4968 93.5658 17.3097 93.231 17.185C92.8339 17.0536 92.4234 16.9665 92.0069 16.9251C91.5136 16.8696 91.0243 16.7828 90.5422 16.6653C90.0733 16.5598 89.6469 16.3173 89.3181 15.9688C89.1244 15.732 88.9819 15.4582 88.8993 15.1643C88.8167 14.8704 88.7959 14.5628 88.8381 14.2606C88.8803 13.9584 88.9846 13.668 89.1446 13.4076C89.3045 13.1471 89.5167 12.9222 89.768 12.7467C90.5221 12.2694 91.4069 12.0369 92.2999 12.0814C93.1644 12.0524 94.0199 12.2649 94.769 12.6947C95.0709 12.8646 95.3308 13.0992 95.5299 13.3815C95.729 13.6638 95.8622 13.9867 95.9198 14.3266C95.9198 14.5345 95.8257 14.6384 95.6374 14.6384H94.0889C94.0237 14.6422 93.9589 14.6264 93.9029 14.593C93.8469 14.5597 93.8023 14.5103 93.775 14.4513C93.6716 14.2051 93.4768 14.0079 93.231 13.9004C92.9537 13.7563 92.6441 13.6847 92.3312 13.6925C92.0245 13.676 91.7186 13.7367 91.4419 13.8692C91.3445 13.9066 91.2605 13.9721 91.2008 14.0573C91.1411 14.1425 91.1085 14.2436 91.1071 14.3474C91.1138 14.4895 91.1662 14.6258 91.2566 14.7361C91.347 14.8465 91.4706 14.9252 91.6093 14.9606C92.0111 15.1111 92.4288 15.2157 92.8544 15.2724C93.3437 15.3364 93.8291 15.4266 94.3086 15.5427C94.7775 15.6481 95.2039 15.8907 95.5327 16.2391C95.7086 16.431 95.8445 16.6557 95.9325 16.9001C96.0205 17.1445 96.0589 17.4039 96.0454 17.6631C96.0544 18.0224 95.9695 18.3779 95.799 18.6949C95.6284 19.0118 95.3781 19.2795 95.0724 19.4717C94.2907 19.9702 93.3747 20.2204 92.4463 20.1889Z" fill="#1D2130"/>
<path d="M107.104 19.6692C107.11 19.7061 107.109 19.7438 107.1 19.7801C107.091 19.8164 107.074 19.8505 107.052 19.8806C107.03 19.9106 107.001 19.9358 106.969 19.9549C106.937 19.9739 106.901 19.9863 106.864 19.9914C106.482 20.1153 106.083 20.1818 105.681 20.1889C105.284 20.2298 104.882 20.168 104.516 20.0096C104.149 19.8512 103.83 19.6015 103.589 19.2846C102.85 19.9158 101.894 20.2397 100.921 20.1889C100.469 20.2096 100.018 20.1361 99.5961 19.9732C99.1745 19.8103 98.7918 19.5616 98.4727 19.243C98.1558 18.9092 97.91 18.5153 97.75 18.0849C97.59 17.6544 97.5191 17.1963 97.5416 16.738V12.6739C97.5416 12.4764 97.6357 12.3725 97.8345 12.3725H99.5922C99.791 12.3725 99.8851 12.4764 99.8851 12.6739V16.4262C99.866 16.8937 100.027 17.3509 100.335 17.7047C100.489 17.8668 100.676 17.9942 100.883 18.0785C101.091 18.1628 101.314 18.2019 101.538 18.1932C101.768 18.2032 101.997 18.1679 102.212 18.0894C102.428 18.0109 102.625 17.8907 102.794 17.7359C102.953 17.5726 103.077 17.3786 103.158 17.1659C103.239 16.9531 103.275 16.7262 103.264 16.499V12.6739C103.264 12.4764 103.359 12.3725 103.557 12.3725H105.336C105.535 12.3725 105.629 12.4764 105.629 12.6739V17.5696C105.629 17.9749 105.807 18.1724 106.152 18.1724C106.314 18.1786 106.476 18.1611 106.633 18.1204C106.673 18.1094 106.714 18.1074 106.755 18.1147C106.795 18.1219 106.834 18.1381 106.867 18.1621C106.9 18.1861 106.927 18.2173 106.947 18.2533C106.966 18.2892 106.977 18.3291 106.979 18.3699L107.104 19.6692Z" fill="#1D2130"/>
<path d="M123.729 19.6692C123.738 19.7064 123.739 19.7452 123.731 19.7828C123.724 19.8205 123.708 19.8559 123.685 19.8867C123.662 19.9175 123.632 19.9429 123.598 19.961C123.564 19.9791 123.527 19.9895 123.488 19.9914C123.099 20.1171 122.694 20.1837 122.285 20.1889C121.663 20.2208 121.048 20.0452 120.538 19.69C120.317 19.5378 120.138 19.334 120.016 19.0964C119.893 18.8589 119.832 18.5951 119.837 18.3284V15.8857C119.859 15.4196 119.702 14.9626 119.397 14.6073C119.251 14.4448 119.069 14.3167 118.867 14.2323C118.664 14.1478 118.445 14.109 118.226 14.1187C118.028 14.1113 117.831 14.1486 117.65 14.2278C117.468 14.3071 117.308 14.4261 117.179 14.5761C116.903 14.9244 116.762 15.3596 116.782 15.8026V19.638C116.782 19.8355 116.688 19.9395 116.489 19.9395H114.721C114.68 19.9445 114.638 19.9402 114.599 19.9268C114.56 19.9135 114.524 19.8914 114.495 19.8624C114.466 19.8333 114.443 19.798 114.43 19.7591C114.417 19.7202 114.412 19.6788 114.417 19.638V15.8857C114.44 15.4247 114.295 14.971 114.009 14.6073C113.882 14.4545 113.722 14.3315 113.541 14.2471C113.36 14.1626 113.163 14.1188 112.963 14.1187C112.75 14.1102 112.537 14.1465 112.338 14.2253C112.14 14.3041 111.961 14.4237 111.812 14.5761C111.513 14.9133 111.359 15.3537 111.383 15.8026V19.638C111.388 19.6788 111.384 19.7202 111.371 19.7591C111.357 19.798 111.335 19.8333 111.306 19.8624C111.276 19.8914 111.241 19.9135 111.202 19.9268C111.163 19.9402 111.121 19.9445 111.08 19.9395H109.374C109.176 19.9395 109.081 19.8355 109.081 19.638V14.7424C109.094 14.659 109.086 14.574 109.06 14.494C109.033 14.414 108.988 14.3413 108.928 14.2817C108.868 14.2221 108.795 14.1773 108.714 14.1508C108.634 14.1243 108.548 14.1169 108.464 14.1291H108.119C107.889 14.1291 107.774 14.046 107.774 13.8797V12.6532C107.768 12.5773 107.789 12.5018 107.833 12.4394C107.877 12.377 107.941 12.3314 108.014 12.3102C108.376 12.1795 108.759 12.116 109.144 12.1231C109.514 12.0918 109.885 12.165 110.214 12.3342C110.544 12.5034 110.818 12.7617 111.007 13.0793C111.36 12.747 111.778 12.4905 112.235 12.326C112.692 12.1614 113.179 12.0924 113.664 12.1231C114.135 12.1002 114.606 12.1881 115.036 12.3795C115.467 12.5709 115.847 12.8605 116.144 13.2248C116.49 12.851 116.915 12.5582 117.389 12.3677C117.863 12.1771 118.374 12.0936 118.885 12.1231C119.341 12.1018 119.798 12.1749 120.224 12.3377C120.651 12.5005 121.039 12.7495 121.364 13.0689C121.682 13.402 121.929 13.7959 122.089 14.2265C122.249 14.6571 122.319 15.1155 122.295 15.5739V17.58C122.295 17.975 122.473 18.1725 122.808 18.1725C122.97 18.18 123.133 18.1624 123.289 18.1205C123.506 18.1205 123.621 18.2036 123.635 18.3699L123.729 19.6692Z" fill="#1D2130"/>
<path d="M1.04712 11.0213C1.819 7.93911 3.60666 5.20207 6.12545 3.246C8.64425 1.28993 11.7494 0.227295 14.9464 0.227295C18.1434 0.227295 21.2485 1.28993 23.7673 3.246C26.2861 5.20207 28.0738 7.93911 28.8456 11.0213H27.5902C25.4722 10.9903 23.3977 11.6192 21.658 12.8195C21.5576 12.8917 21.4528 12.9577 21.3441 13.017H21.1976C21.089 12.9577 20.9842 12.8917 20.8838 12.8195C19.1286 11.6469 17.0615 11.0207 14.9464 11.0207C12.8313 11.0207 10.7642 11.6469 9.00898 12.8195C8.90858 12.8917 8.80375 12.9577 8.69511 13.017H8.54864C8.44 12.9577 8.33518 12.8917 8.23477 12.8195C6.49502 11.6192 4.42052 10.9903 2.30261 11.0213H1.04712ZM25.3303 17.5384C25.9748 17.0398 26.7736 16.7789 27.5902 16.8005H29.2746V13.4639H27.5902C26.1518 13.4466 24.7463 13.8914 23.5831 14.732C22.9284 15.2115 22.1365 15.4702 21.3232 15.4702C20.5099 15.4702 19.7179 15.2115 19.0633 14.732C17.8705 13.9071 16.452 13.4649 14.9987 13.4649C13.5453 13.4649 12.1269 13.9071 10.9341 14.732C10.2794 15.2115 9.48749 15.4702 8.67419 15.4702C7.86089 15.4702 7.06895 15.2115 6.41432 14.732C5.23667 13.8807 3.81106 13.4353 2.35492 13.4639H0.618164V16.8005H2.30261C3.1192 16.7789 3.91798 17.0398 4.56248 17.5384C5.7531 18.3639 7.17001 18.8065 8.62188 18.8065C10.0737 18.8065 11.4907 18.3639 12.6813 17.5384C13.3266 17.0413 14.1248 16.7807 14.9411 16.8005C15.758 16.7772 16.5574 17.0382 17.201 17.5384C18.3938 18.3634 19.8123 18.8056 21.2656 18.8056C22.719 18.8056 24.1375 18.3634 25.3303 17.5384ZM25.3303 23.5047C25.9748 23.006 26.7736 22.7452 27.5902 22.7667H29.2746V19.4302H27.5902C26.1518 19.4129 24.7463 19.8577 23.5831 20.6983C22.9284 21.1777 22.1365 21.4364 21.3232 21.4364C20.5099 21.4364 19.7179 21.1777 19.0633 20.6983C17.8705 19.8733 16.452 19.4311 14.9987 19.4311C13.5453 19.4311 12.1269 19.8733 10.9341 20.6983C10.2794 21.1777 9.48749 21.4364 8.67419 21.4364C7.86089 21.4364 7.06895 21.1777 6.41432 20.6983C5.23667 19.8469 3.81106 19.4016 2.35492 19.4302H0.618164V22.7667H2.30261C3.1192 22.7452 3.91798 23.006 4.56248 23.5047C5.7531 24.3301 7.17001 24.7727 8.62188 24.7727C10.0737 24.7727 11.4907 24.3301 12.6813 23.5047C13.3266 23.0076 14.1248 22.7469 14.9411 22.7667C15.758 22.7434 16.5574 23.0045 17.201 23.5047C18.3938 24.3296 19.8123 24.7718 21.2656 24.7718C22.719 24.7718 24.1375 24.3296 25.3303 23.5047Z" fill="#1D2130"/>
</g>
</svg>
