<svg width="112" height="92" viewBox="0 0 112 92" fill="none" xmlns="http://www.w3.org/2000/svg">
<g id="Award badge">
<path id="Vector" d="M69.1974 52.6308L80.3763 41.7452C80.7552 41.3761 80.8921 40.8236 80.7283 40.3208C80.5647 39.8175 80.1295 39.4506 79.6054 39.3747L64.1577 37.1338L57.2481 23.1501C57.0138 22.6757 56.5302 22.3755 56.0008 22.3755C55.4713 22.3755 54.9875 22.6762 54.7535 23.1501L47.8464 37.1338L32.3962 39.3747C31.8723 39.4506 31.4369 39.8178 31.2733 40.3208C31.1095 40.8236 31.2461 41.3761 31.6253 41.7452L42.8042 52.6308L40.1667 68.0002C40.0771 68.5213 40.2916 69.0483 40.72 69.359C41.148 69.67 41.7155 69.7112 42.1849 69.4649L56.0013 62.2095L69.8178 69.4649C70.0212 69.5719 70.2435 69.6245 70.4647 69.6245C70.7532 69.6245 71.04 69.535 71.2824 69.359C71.7108 69.0486 71.9256 68.5213 71.8358 68.0002L69.1974 52.6308Z" fill="#70C174"/>
<path id="Vector_2" d="M111.402 48.1143C111.332 48.0565 111.23 48.0382 111.151 48.0648C111.054 48.0946 110.966 48.1204 110.882 48.1449L110.841 48.1568C110.634 48.2172 110.456 48.2688 110.279 48.3397C107.488 49.4476 105.291 51.3456 103.562 54.1419C103.134 54.8328 102.804 55.551 102.54 56.2672C102.972 53.8581 103.072 52.9195 103.149 50.2238C103.153 50.1107 103.153 49.9956 103.153 49.8814C103.153 49.5696 103.153 49.275 103.221 49.0062C103.303 48.6877 103.467 48.37 103.626 48.0626C103.671 47.9756 103.716 47.8886 103.753 47.8122C103.765 47.7972 103.807 47.7719 103.823 47.7694C104.621 47.6477 105.327 47.3091 105.982 46.7347C106.641 46.1529 107.183 45.4409 107.594 44.6176C109.066 41.6671 109.803 38.4058 109.785 34.9255C109.783 34.5898 109.744 34.263 109.7 33.9075C109.68 33.7482 109.66 33.5853 109.644 33.4166C109.634 33.3241 109.577 33.2418 109.495 33.2018C109.413 33.1623 109.315 33.1651 109.232 33.2149C109.182 33.246 109.14 33.2713 109.101 33.2938C109.026 33.3383 108.969 33.373 108.915 33.4119C107.659 34.3116 106.551 35.4317 105.621 36.7402C104.104 38.8789 103.222 41.2972 102.985 43.9575C102.961 43.661 102.937 43.3644 102.913 43.0679L102.905 42.9603C102.811 41.7977 102.715 40.5954 102.637 39.4131C102.617 39.1137 102.559 38.8224 102.504 38.5406C102.396 37.9989 102.295 37.4873 102.457 36.9511C102.494 36.8299 102.525 36.7079 102.557 36.5862C102.633 36.2846 103.004 35.8202 103.574 35.3124L103.595 35.2932C103.805 35.1154 104.884 34.1293 105.496 32.1787C106.118 30.1971 106.071 28.1265 106.036 26.6145L106.035 26.5742C105.99 24.4958 105.765 22.9297 105.307 21.4952C105.247 21.3118 105.177 21.1309 105.102 20.9408C105.064 20.8418 105.024 20.7395 104.984 20.6325C104.95 20.5419 104.87 20.4761 104.776 20.4605L104.73 20.4563C104.649 20.4563 104.573 20.4927 104.522 20.5556L104.076 21.0978C101.941 23.6998 100.891 26.7515 100.957 30.1684C100.969 30.7702 101.014 31.3875 101.093 32.0248C100.551 30.1534 99.9141 28.3319 99.1901 26.5795C99.1751 26.5411 99.1654 26.4936 99.1642 26.4533L99.1592 26.2137C99.1517 25.868 99.1439 25.5103 99.1587 25.1584C99.1609 25.1 99.1987 24.9953 99.2775 24.8921C99.3893 24.7446 99.5134 24.6003 99.642 24.4502C99.8609 24.1956 100.087 23.9327 100.266 23.6326C100.843 22.667 101.114 21.5264 101.119 20.0425C101.127 18.2957 100.857 16.4574 100.269 14.257C99.9483 13.0566 99.4636 11.4971 98.5611 10.0833C98.4998 9.98825 98.4314 9.89875 98.3585 9.80398C98.3257 9.76201 98.2912 9.71726 98.2561 9.66918C98.2049 9.60053 98.1343 9.56051 98.0202 9.56051C97.9292 9.56718 97.848 9.61888 97.8026 9.6992C96.6697 11.7417 96.1055 13.9238 96.0788 16.3702C96.056 18.4099 96.3748 20.1651 96.7746 21.5522C95.7571 19.6954 94.6265 17.9013 93.4009 16.1995L93.3728 16.1609C93.345 16.1239 93.3333 16.1058 93.3352 16.1186C93.2582 15.568 93.2047 15.1275 93.1677 14.744C93.1686 14.7381 93.1758 14.7059 93.2331 14.6103C93.3141 14.4724 93.4028 14.3373 93.4972 14.1945C93.6863 13.9071 93.8817 13.6097 94.0069 13.2768C94.3847 12.2718 94.4695 11.1319 94.2656 9.79342C93.8179 6.83092 92.5106 4.16332 90.2698 1.63774C90.0391 1.37843 89.7843 1.14913 89.5147 0.906774L89.4401 0.839236C89.3347 0.743905 89.2265 0.646351 89.1171 0.543238C89.0476 0.47709 88.948 0.452354 88.8514 0.480703C88.7602 0.509608 88.6898 0.585205 88.6681 0.679147L88.6191 0.893712C88.5857 1.03601 88.5598 1.1483 88.5406 1.26114C88.239 3.05937 88.261 4.98545 88.6082 7.14999C88.9527 9.29675 89.6391 11.1483 90.6921 12.7567C89.1129 10.8979 87.5769 9.33705 85.9715 7.95378C85.9643 7.94433 85.9537 7.9157 85.9529 7.90847C86.0784 6.8287 85.8118 5.81147 85.1374 4.79868C84.2519 3.46765 83.0213 2.4532 81.4799 1.78393C80.5576 1.38426 79.6019 1.03046 78.6663 0.683872C78.2181 0.517668 77.7699 0.35202 77.3083 0.17442C76.8445 -0.00984963 76.6461 -0.0426459 76.5384 0.0568543C76.3999 0.185815 76.4333 0.295878 76.4937 0.49599L76.5131 0.561303C77.0788 2.46459 77.8294 3.96988 78.8085 5.16305C80.6058 7.35566 82.7077 8.46962 85.2312 8.56801C85.3197 8.57329 85.3898 8.59775 85.4184 8.61998C85.7737 8.88569 86.0353 9.09831 86.2665 9.30898C86.9976 9.97658 87.7177 10.6878 88.4221 11.4368C87.3743 10.7865 86.0937 10.493 84.6514 10.5658C83.8621 10.6055 83.0786 10.7212 82.321 10.8329L82.2921 10.8373C82.0681 10.8701 81.8452 10.9026 81.6229 10.9341C81.1361 10.9999 80.6453 11.0861 80.2118 11.1617C80.0362 11.1931 79.617 11.2884 79.5204 11.4916C79.487 11.5611 79.4898 11.6372 79.5277 11.7064C79.561 11.7667 79.5978 11.8234 79.6378 11.8751C80.889 13.4969 82.3163 14.565 84.0012 15.14C86.0556 15.8449 87.9425 15.7868 89.6379 14.9577C89.8972 14.8151 90.21 14.7429 90.5672 14.7429C90.8368 14.7429 91.0391 14.7854 91.1061 14.8007C91.2066 14.8173 91.3429 14.8735 91.3707 14.9096C92.4252 16.2946 93.4259 17.7737 94.3605 19.3276C93.5709 18.5605 92.5412 18.0433 91.1384 17.7065C89.9089 17.4138 88.6519 17.351 87.4367 17.2898L87.0296 17.2693C86.6485 17.2498 86.2673 17.2256 85.8747 17.2009L85.2165 17.1603C85.1313 17.1603 85.0504 17.2015 85.0008 17.2698C84.946 17.3435 84.9329 17.4391 84.9652 17.525C84.9916 17.5967 85.0398 17.7231 85.0645 17.7654C86.3463 19.9071 87.8515 21.3885 89.6655 22.2946C91.4389 23.1795 93.0411 23.4135 94.6573 23.0275C94.8443 22.9825 95.061 22.9586 95.285 22.9586C95.9725 22.9586 96.4519 23.1681 96.5526 23.3621C97.4418 25.1945 98.2353 27.0987 98.9197 29.0409C98.2019 28.0522 97.1981 27.2493 95.9271 26.6487C94.6646 26.0534 93.35 25.5092 92.0565 24.9736C91.5006 24.744 90.9425 24.5136 90.3869 24.2779C90.3043 24.2418 90.2066 24.2493 90.1296 24.3001C90.0539 24.3505 90.0088 24.4344 90.0088 24.5247C90.0088 24.6982 91.8534 29.8124 94.5324 31.8277C95.6253 32.6498 96.9713 33.4956 98.6687 33.5353C99.1768 33.5456 99.702 33.6173 100.099 34.0678C100.159 34.1395 100.24 34.1954 100.327 34.2252C100.463 34.2696 100.5 34.3524 100.567 34.6348C101.117 36.9406 101.517 39.3172 101.764 41.7305C101.689 41.4856 101.603 41.2382 101.503 40.9878C100.904 39.4689 99.8946 38.1398 98.3276 36.8049C97.52 36.114 96.6742 35.445 95.8562 34.7977L95.8172 34.7671C95.4447 34.4722 95.073 34.1785 94.7024 33.8811C94.6259 33.8196 94.5513 33.7563 94.4648 33.6823L94.2336 33.4845C94.1526 33.4161 94.0322 33.4019 93.9376 33.4492C93.8405 33.4984 93.7823 33.6001 93.7898 33.7087C93.8013 33.8719 93.8104 34.0261 93.8191 34.1743L93.8235 34.2435C93.8419 34.5484 93.8591 34.836 93.89 35.1201C94.1799 37.8858 95.0032 40.1949 96.4068 42.179C97.2757 43.4056 98.5221 44.9047 100.466 45.6137C100.939 45.7872 101.282 46.0498 101.649 46.5212C101.996 46.9626 102.061 47.3658 102.053 47.8733C102.02 49.9993 101.868 52.1082 101.601 54.1735C101.538 53.5988 101.406 53.0071 101.202 52.3923C100.781 51.1193 100.125 49.8817 99.1962 48.6088C98.3944 47.5065 97.56 46.4003 96.7532 45.33L96.6995 45.2585C96.3795 44.8347 96.0598 44.4103 95.7485 43.9951C95.6901 43.9097 95.6058 43.8792 95.5571 43.8622C95.4881 43.8286 95.4057 43.8252 95.3326 43.8564C95.2608 43.8869 95.2057 43.9473 95.1815 44.0212L95.172 44.0501C95.1587 44.089 95.1481 44.1235 95.1426 44.1579C94.5861 47.4726 94.9275 50.4423 96.1859 53.2377C96.8005 54.6046 97.6248 56.1521 99.0783 57.2655C99.7418 57.7739 100.266 58.4871 100.553 59.2733C100.614 59.4426 100.612 59.516 100.605 59.5443C99.99 62.0896 99.1865 64.5446 98.2097 66.8681C98.4612 65.6436 98.4439 64.3573 98.1568 63.0246C97.7492 61.1358 97.0486 59.3053 96.4238 57.7378L96.2365 57.2683C95.9436 56.5337 95.6486 55.7933 95.344 55.026C95.3053 54.9279 95.2121 54.8609 95.0877 54.8548C94.9898 54.8548 94.8997 54.9106 94.8529 55.0012L94.7547 55.1858C94.7116 55.2667 94.6712 55.342 94.6368 55.4198C93.3797 58.2531 92.9552 61.1575 93.3756 64.0524C93.676 66.1225 94.1852 67.6047 95.0265 68.8587C95.462 69.5069 95.8757 70.2289 95.9508 71.1169C95.9686 71.327 95.9602 71.4718 95.8665 71.6367C94.8053 73.493 93.6157 75.2448 92.3128 76.8724C92.3178 76.8635 92.3225 76.8546 92.3275 76.8457C93.2648 75.1345 93.2932 73.2842 93.1975 71.6997C93.1149 70.3415 92.9591 68.9852 92.8091 67.6739L92.8005 67.598C92.7401 67.0727 92.68 66.5477 92.6252 66.0216C92.5935 65.7233 92.5582 65.4251 92.5217 65.1225L92.4736 64.7128C92.463 64.6222 92.4076 64.5438 92.3281 64.5043C92.1801 64.4271 91.9405 64.5463 91.6818 64.852C89.9036 66.9529 88.8002 69.327 88.4018 71.9088C87.9886 74.5855 88.2126 76.8763 89.0873 78.9118C89.1107 78.966 89.1102 79.0767 89.1099 79.1136L89.0629 80.2848C89.0559 80.369 89.0114 80.4641 88.9747 80.4994C87.1991 82.2076 85.2443 83.6926 83.1465 84.9285C84.1395 84.0319 84.8534 82.8621 85.3161 81.3796C85.8288 79.7365 86.092 78.0263 86.3471 76.3682L86.3694 76.2206C86.4598 75.6381 86.5541 75.0566 86.6504 74.4624L86.7592 73.7906C86.7748 73.6928 86.7361 73.595 86.6601 73.5363C86.5847 73.4763 86.4757 73.4618 86.3889 73.4991L86.294 73.5383C86.1927 73.5797 86.1045 73.6167 86.0213 73.6592C82.0556 75.6378 79.445 80.2526 79.8139 84.6317C79.8718 85.3176 79.8089 85.9619 79.6214 86.6C79.6039 86.6581 79.5477 86.7212 79.5249 86.7318C77.6413 87.5253 75.8504 88.1042 74.0484 88.5017C73.9557 88.5231 73.8823 88.5892 73.8522 88.6784C73.8219 88.7682 73.8403 88.8657 73.902 88.9391C74.0979 89.1709 74.2684 89.4202 74.4087 89.6812C74.4663 89.7879 74.6034 89.8427 74.7061 89.816C76.1743 89.4814 77.604 89.0481 78.957 88.5272C79.0664 88.4833 79.1498 88.4625 79.228 88.4753C79.529 88.5153 79.8471 88.577 80.2001 88.6645C80.273 88.6823 80.3334 88.7159 80.3345 88.7129C81.1057 90.2487 82.4312 91.2271 84.3879 91.7032C84.8136 91.8052 85.2526 91.8805 85.6928 91.9266C86.1535 91.9753 86.6674 92 87.2196 92C87.9847 92 88.5303 91.9528 88.537 91.9522C90.2331 91.7626 91.6815 91.3813 92.9644 90.7863C93.4908 90.5425 94.0906 90.2143 94.5516 89.6281C94.6398 89.5158 94.6251 89.3538 94.518 89.2596C93.2148 88.1109 91.8879 87.2762 90.4609 86.7081C88.3467 85.8688 86.4209 85.6414 84.5331 86.0041C84.251 86.0589 83.9756 86.1278 83.7079 86.207C85.4738 85.1526 87.1646 83.9133 88.7613 82.5014C88.7919 82.4736 88.8422 82.4491 88.8815 82.4421C89.1427 82.3988 89.4897 82.3454 89.8447 82.3199C89.8775 82.3199 89.9192 82.3357 89.924 82.3374C90.886 83.413 92.1255 83.9358 93.7133 83.9358C93.7943 83.9358 93.8755 83.9341 93.9565 83.9313C95.6829 83.8757 97.4184 83.4019 99.1158 82.5222C100.349 81.8793 101.635 81.1309 102.678 80.0147C102.909 79.7665 103.116 79.4858 103.298 79.2381L103.316 79.214C103.397 79.1047 103.478 78.9947 103.562 78.886C103.607 78.8274 103.627 78.7517 103.615 78.6756C103.602 78.6022 103.559 78.5369 103.487 78.4897C103.468 78.4797 103.027 78.2431 102.624 78.0872C99.9243 77.0452 97.1992 76.9385 94.5995 77.7754C93.7484 78.0486 92.9474 78.4588 92.1675 79.0258C93.6098 77.351 94.9453 75.5149 96.1578 73.5394C96.1709 73.5185 96.2054 73.4621 96.2165 73.4518C96.3225 73.3843 96.431 73.3204 96.5392 73.2573C96.7331 73.1436 96.934 73.026 97.1227 72.886C97.2818 72.7673 97.3266 72.7642 97.4874 72.8676C97.715 73.0152 97.9796 73.0919 98.2102 73.1522C99.5596 73.4974 100.92 73.3254 102.424 72.6197C103.799 71.976 104.856 70.9585 105.793 69.9552C107.157 68.4916 108.048 67.1711 108.598 65.7992C108.713 65.5113 108.796 65.2136 108.881 64.9023C108.917 64.7717 108.953 64.6411 108.991 64.5127C109.033 64.3748 108.96 64.2289 108.824 64.1808L108.711 64.1722C108.154 64.1722 103.193 64.2536 100.291 67.0663C99.66 67.6783 99.0941 68.3287 98.5775 69.0408C99.7254 66.6122 100.699 64.0527 101.483 61.3959L101.495 61.357C101.504 61.3245 101.519 61.2753 101.528 61.262L102.287 60.2208C102.315 60.1791 102.319 60.1791 102.363 60.1791C102.383 60.1791 102.405 60.1805 102.429 60.1819L102.592 60.1916C103.156 60.2267 103.489 60.2216 103.762 60.1788C104.843 60.0085 105.818 59.4648 106.744 58.5165C108.909 56.2986 110.399 53.5315 111.299 50.0579C111.396 49.6858 111.423 49.31 111.452 48.9114C111.465 48.7308 111.479 48.5446 111.499 48.3522C111.508 48.26 111.472 48.1718 111.402 48.1143Z" fill="#1C1D28"/>
<path id="Vector_3" d="M37.951 88.4994C36.1506 88.1022 34.36 87.5233 32.4758 86.7298C32.4533 86.7192 32.3974 86.6561 32.3799 86.5994C32.1921 85.9599 32.1292 85.3157 32.187 84.6297C32.556 80.2503 29.9454 75.6358 25.9805 73.6575C25.8962 73.6147 25.8083 73.5777 25.707 73.5363L25.613 73.4974C25.5236 73.4593 25.4149 73.4751 25.3428 73.5329C25.2649 73.593 25.2262 73.6908 25.2421 73.7889L25.3506 74.4604C25.4469 75.0546 25.5412 75.6361 25.6316 76.2181L25.6544 76.3704C25.909 78.0243 26.1722 79.7347 26.6849 81.3779C27.1476 82.8604 27.8615 84.0302 28.8545 84.9265C26.7567 83.6908 24.8019 82.2058 23.0266 80.4979C22.9893 80.4621 22.9451 80.3671 22.9387 80.2887L22.8911 79.1166C22.8908 79.0749 22.8903 78.9643 22.9139 78.9096C23.7884 76.8745 24.0124 74.5838 23.5992 71.907C23.2008 69.3253 22.0974 66.9512 20.3192 64.8503C20.1111 64.6043 19.9275 64.4798 19.7734 64.4798C19.7358 64.4798 19.7019 64.4873 19.6752 64.5012C19.5934 64.5418 19.538 64.6205 19.5271 64.7113L19.4796 65.1202C19.4428 65.4237 19.4075 65.7216 19.3758 66.0201C19.321 66.546 19.2609 67.071 19.2005 67.5963L19.1919 67.6722C19.0416 68.9837 18.8858 70.34 18.8035 71.698C18.7078 73.2822 18.7362 75.1324 19.6735 76.844C19.6785 76.8526 19.6829 76.8617 19.688 76.8704C18.385 75.2428 17.1956 73.4912 16.1345 71.6352C16.0408 71.4701 16.0327 71.3253 16.0502 71.1152C16.1256 70.2266 16.539 69.5046 16.9745 68.857C17.8155 67.603 18.3247 66.1207 18.6254 64.0507C19.0458 61.1557 18.6213 58.2516 17.3643 55.4184C17.3298 55.3403 17.2894 55.2649 17.2463 55.1841L17.1481 54.999C17.1011 54.9086 17.0006 54.8491 16.8946 54.8539C16.7889 54.8594 16.6957 54.9264 16.6573 55.0237C16.3524 55.7919 16.0574 56.532 15.7645 57.2666L15.5772 57.736C14.9524 59.3039 14.2515 61.1343 13.8442 63.0229C13.5571 64.3556 13.5395 65.6419 13.7913 66.8664C12.8142 64.5432 12.011 62.0882 11.3958 59.5426C11.3889 59.5143 11.3867 59.4409 11.4476 59.2716C11.7353 58.4851 12.2592 57.7719 12.923 57.2635C14.3762 56.1502 15.2005 54.6026 15.8151 53.2357C17.0735 50.4403 17.4149 47.4706 16.8584 44.1562C16.8526 44.1215 16.842 44.087 16.8295 44.0495L16.8195 44.0195C16.7953 43.9453 16.7402 43.8852 16.6673 43.8538C16.5961 43.8241 16.5065 43.8296 16.4511 43.8569C16.3955 43.8772 16.3112 43.908 16.2564 43.9883C15.9414 44.4086 15.6218 44.8327 15.3018 45.2566L15.2481 45.328C14.4413 46.3983 13.6069 47.5045 12.805 48.6065C11.8761 49.8797 11.22 51.1173 10.7991 52.3903C10.596 53.0051 10.4632 53.5968 10.4006 54.1715C10.1333 52.1062 9.98165 49.9975 9.94854 47.8713C9.94075 47.3638 10.0053 46.9606 10.3522 46.5189C10.7195 46.0481 11.0625 45.7852 11.5355 45.6118C13.4789 44.9025 14.7256 43.4036 15.5945 42.177C16.9981 40.1929 17.8214 37.8841 18.1113 35.1186C18.1422 34.834 18.1597 34.5461 18.1778 34.2415L18.1822 34.1723C18.1908 34.0241 18.2 33.8699 18.2117 33.7065C18.2189 33.5981 18.1608 33.4964 18.0637 33.4472C17.9697 33.3999 17.8492 33.4138 17.7674 33.483L17.5367 33.6803C17.4499 33.7543 17.3757 33.8176 17.2986 33.8793C16.9283 34.1765 16.5566 34.4705 16.184 34.7654L16.1451 34.796C15.3274 35.443 14.4816 36.112 13.6739 36.8029C12.1067 38.1381 11.0976 39.4672 10.498 40.9861C10.399 41.2365 10.3122 41.4842 10.2376 41.7293C10.4841 39.3157 10.8845 36.9388 11.4342 34.6328C11.501 34.3507 11.5383 34.2679 11.6755 34.2229C11.7617 34.1937 11.8421 34.1375 11.9008 34.0681C12.2995 33.6153 12.8245 33.5436 13.3331 33.5333C15.0303 33.4936 16.3763 32.6478 17.4689 31.8257C20.1479 29.8101 21.9925 24.6961 21.9925 24.5227C21.9925 24.4324 21.9474 24.3482 21.8709 24.2973C21.7955 24.2476 21.6937 24.2406 21.6169 24.2748C21.0588 24.5113 20.5006 24.7417 19.9228 24.9805C18.6513 25.5072 17.3367 26.0514 16.0741 26.6464C14.8035 27.247 13.7994 28.0502 13.0816 29.0386C13.7657 27.0967 14.5589 25.1928 15.447 23.3632C15.5491 23.1658 16.0288 22.9563 16.7166 22.9563C16.9402 22.9563 17.157 22.9802 17.3442 23.0252C18.9601 23.4121 20.5624 23.1775 22.3358 22.2923C24.1501 21.3862 25.6552 19.9049 26.9373 17.7623C26.9618 17.7209 27.0099 17.5944 27.0358 17.5235C27.0683 17.4368 27.0553 17.3412 27.0013 17.2687C26.9512 17.1997 26.8711 17.1586 26.769 17.1586C26.7681 17.1586 26.7676 17.1586 26.7667 17.1586L26.1263 17.1989C25.7337 17.2236 25.3525 17.2478 24.9714 17.2673L24.5643 17.2878C23.3491 17.349 22.0921 17.4118 20.8623 17.7045C19.4598 18.0413 18.4301 18.5585 17.6405 19.3256C18.5751 17.7717 19.5758 16.2931 20.63 14.9082C20.6584 14.8715 20.7944 14.8153 20.906 14.7967C20.9617 14.7837 21.1642 14.7411 21.4335 14.7411C21.7908 14.7411 22.1035 14.8137 22.3686 14.9593C24.0532 15.7823 25.9452 15.8434 27.9993 15.1386C29.6842 14.5635 31.1112 13.4954 32.362 11.8742C32.4027 11.822 32.4394 11.765 32.4728 11.705C32.5109 11.6358 32.5134 11.5596 32.48 11.4901C32.3832 11.2873 31.9642 11.1919 31.7878 11.1602C31.3549 11.0846 30.8644 10.9985 30.3781 10.9326C30.1552 10.9015 29.9321 10.869 29.7084 10.8359L29.6797 10.8314C28.9218 10.7197 28.1384 10.6041 27.3491 10.5643C25.9068 10.4907 24.6261 10.7847 23.578 11.4357C24.2828 10.6864 25.0028 9.9754 25.734 9.30753C25.9652 9.09686 26.2267 8.88452 26.5831 8.61798C26.6107 8.59685 26.6808 8.57212 26.7667 8.56712C29.2927 8.46845 31.3947 7.35449 33.192 5.16215C34.171 3.96871 34.9217 2.46342 35.4873 0.560132L35.5068 0.494817C35.5672 0.294705 35.6005 0.184643 35.4617 0.055682C35.3546 -0.0438182 35.166 -0.0143564 34.6757 0.179641C34.2306 0.35057 33.7826 0.516497 33.3227 0.68687C32.3988 1.02901 31.4431 1.38281 30.5208 1.78248C28.9794 2.45175 27.7486 3.4662 26.863 4.79723C26.1886 5.81002 25.9221 6.82753 26.0475 7.90258C26.0467 7.91453 26.0361 7.94315 26.0345 7.94649C24.4255 9.33421 22.8875 10.8965 21.3083 12.7559C22.3614 11.1475 23.0478 9.29558 23.3922 7.14882C23.7394 4.98455 23.7614 3.0582 23.4598 1.25997C23.4406 1.1474 23.4147 1.03484 23.3816 0.89393L23.3324 0.676863C23.3101 0.583756 23.24 0.508436 23.1479 0.479531C23.0558 0.452293 22.9526 0.476473 22.8839 0.541788C22.7737 0.645457 22.6658 0.74329 22.5603 0.838343L22.486 0.905325C22.2162 1.14824 21.9613 1.37753 21.7307 1.63685C19.4896 4.16243 18.1825 6.83003 17.7348 9.79225C17.5309 11.1311 17.6155 12.2709 17.9936 13.2759C18.1188 13.6088 18.3141 13.9062 18.5086 14.2014C18.5976 14.3362 18.6866 14.4715 18.7682 14.6105C18.8283 14.7103 18.8333 14.7361 18.833 14.7314C18.796 15.1275 18.7428 15.5688 18.6711 16.0986C18.668 16.1052 18.658 16.1208 18.626 16.163L18.6001 16.1989C17.3745 17.9007 16.2439 19.6947 15.2264 21.5516C15.6265 20.1647 15.945 18.4093 15.9225 16.3695C15.8952 13.9229 15.3313 11.7408 14.1978 9.69775C14.153 9.61826 14.0718 9.56657 13.958 9.55878C13.8754 9.55878 13.7958 9.59964 13.7438 9.6694C13.7098 9.71665 13.6753 9.76112 13.6425 9.80336C13.5693 9.89786 13.5009 9.98736 13.4397 10.083C12.5371 11.4968 12.053 13.0557 11.7317 14.2561C11.1443 16.4576 10.8745 18.2959 10.8823 20.0416C10.8867 21.5255 11.1574 22.6661 11.7344 23.6314C11.9139 23.9318 12.1398 24.1948 12.3668 24.4593C12.4873 24.5997 12.6111 24.744 12.7232 24.8918C12.8017 24.9946 12.8395 25.0994 12.8418 25.1578C12.8565 25.5097 12.8487 25.8674 12.8412 26.2131L12.8359 26.4521C12.8351 26.4933 12.8256 26.5405 12.8114 26.5766C12.0869 28.3301 11.4501 30.1525 10.907 32.0241C10.9869 31.3868 11.0319 30.7698 11.0433 30.1678C11.109 26.7509 10.0598 23.6995 7.9242 21.0972L7.47905 20.5555C7.42758 20.4918 7.35134 20.4557 7.2701 20.4557L7.22559 20.4596C7.13044 20.4755 7.05031 20.5413 7.0172 20.6311C6.97658 20.7392 6.93679 20.8412 6.89812 20.9399C6.82356 21.1305 6.75317 21.3112 6.69363 21.4949C6.2354 22.9288 6.01059 24.4952 5.96497 26.573L5.96413 26.6136C5.92991 28.1253 5.88289 30.1962 6.50444 32.1778C7.11625 34.1287 8.19519 35.1145 8.40441 35.2915L8.42667 35.3115C8.99619 35.8193 9.36706 36.2837 9.44385 36.5853C9.47473 36.707 9.50617 36.8291 9.54289 36.9497C9.70537 37.4864 9.60382 37.9978 9.4942 38.55C9.43967 38.8288 9.38292 39.1167 9.36316 39.4122C9.2847 40.5945 9.18844 41.7968 9.09523 42.9594L9.08689 43.067C9.06296 43.3635 9.03903 43.6601 9.01539 43.9567C8.77778 41.2963 7.89582 38.878 6.3784 36.7393C5.44914 35.4308 4.34127 34.3113 3.08482 33.411C3.03057 33.3721 2.97353 33.3374 2.8973 33.2921C2.8603 33.2707 2.81745 33.2451 2.76542 33.2126C2.68696 33.1656 2.58625 33.1614 2.50528 33.2009C2.42237 33.2412 2.36534 33.3232 2.35588 33.416C2.33891 33.5842 2.31915 33.747 2.29829 33.916C2.25628 34.2621 2.21649 34.5889 2.21482 34.9247C2.19618 38.4049 2.93319 41.6662 4.40609 44.6167C4.81647 45.44 5.35872 46.1521 6.01838 46.734C6.67248 47.308 7.37833 47.6465 8.17488 47.7682C8.19241 47.7713 8.23414 47.7966 8.24054 47.8016C8.28366 47.888 8.32846 47.9747 8.37325 48.0617C8.53239 48.3688 8.69682 48.6865 8.77862 49.005C8.84678 49.2744 8.84678 49.5687 8.84678 49.8805C8.84678 49.9948 8.84678 50.1098 8.8504 50.2227C8.92691 52.9186 9.02735 53.8575 9.45915 56.2663C9.19567 55.5501 8.86487 54.8319 8.4378 54.141C6.70837 51.3447 4.51126 49.4467 1.72098 48.3391C1.54347 48.2677 1.36541 48.2163 1.15897 48.1562L1.1178 48.144C1.03405 48.1195 0.945298 48.0934 0.850424 48.0645C0.764732 48.0364 0.667077 48.0556 0.597243 48.1134C0.527688 48.171 0.491241 48.2591 0.500422 48.3508C0.52101 48.542 0.5352 48.7279 0.548276 48.9094C0.576933 49.3074 0.60392 49.6832 0.700463 50.0551C1.60079 53.529 3.09094 56.2958 5.25578 58.514C6.18142 59.4623 7.15687 60.0059 8.23776 60.1763C8.51041 60.2188 8.84372 60.2241 9.40796 60.1891L9.57044 60.1794C9.5952 60.178 9.6169 60.1766 9.63665 60.1766C9.68117 60.1766 9.68479 60.1766 9.71567 60.2222L10.4716 61.2591C10.4813 61.2727 10.4955 61.3219 10.5053 61.3558L10.5164 61.3931C11.301 64.0501 12.2745 66.6093 13.4224 69.0382C12.9058 68.3259 12.3396 67.6755 11.7086 67.0638C8.80672 64.2511 3.84548 64.1696 3.28931 64.1696L3.22004 64.1702L3.17635 64.1783C3.04003 64.2266 2.9663 64.3723 3.00831 64.5093C3.04698 64.6385 3.08315 64.7691 3.12461 64.9226C3.2039 65.2108 3.28625 65.5084 3.40171 65.7964C3.95148 67.1688 4.84262 68.489 6.20674 69.9526C7.14407 70.9559 8.20075 71.9735 9.57489 72.6169C11.0798 73.3228 12.4386 73.4951 13.7899 73.1494C14.0198 73.0891 14.2841 73.0126 14.5114 72.8653C14.6733 72.7617 14.7175 72.765 14.8767 72.8834C15.0653 73.0235 15.2659 73.1411 15.4607 73.255C15.5683 73.3181 15.6768 73.3817 15.7781 73.4457C15.7942 73.4593 15.8287 73.5157 15.8415 73.5366C17.054 75.5121 18.3898 77.3481 19.8321 79.023C19.0519 78.456 18.2509 78.0457 17.4001 77.7725C14.8002 76.9357 12.075 77.0421 9.37596 78.0847C8.9731 78.2406 8.53156 78.4768 8.50207 78.4935C8.4403 78.5341 8.39773 78.5997 8.38438 78.675C8.37269 78.7489 8.39189 78.8245 8.43696 78.8823C8.52126 78.9918 8.60278 79.1019 8.68347 79.2111L8.70127 79.235C8.88351 79.4829 9.08995 79.7634 9.32143 80.0118C10.3639 81.1283 11.6496 81.8768 12.8838 82.5194C14.5809 83.399 16.3165 83.8729 18.0426 83.9285C18.1238 83.9313 18.205 83.9329 18.286 83.9329C19.8738 83.9329 21.1133 83.4101 22.0687 82.3409C22.0804 82.3326 22.1218 82.3167 22.1446 82.3165C22.5097 82.3426 22.8566 82.3957 23.1159 82.4388C23.1568 82.446 23.2072 82.4704 23.2386 82.4988C24.8348 83.9104 26.5252 85.1494 28.2911 86.2039C28.0235 86.1247 27.7477 86.0558 27.4656 86.0005C25.5785 85.6381 23.6526 85.8654 21.5378 86.7048C20.1111 87.2729 18.7843 88.1075 17.4814 89.2562C17.374 89.3504 17.359 89.5124 17.4474 89.6247C17.9085 90.2109 18.5083 90.5391 19.0344 90.7826C20.3176 91.3782 21.766 91.7595 23.464 91.9491C23.469 91.9494 24.0146 91.9966 24.7797 91.9966C25.332 91.9966 25.8458 91.9719 26.3063 91.9232C26.7464 91.8771 27.1855 91.8018 27.6114 91.6995C29.5679 91.2237 30.8936 90.2454 31.6531 88.7265C31.6668 88.7134 31.7252 88.6795 31.7992 88.6614C32.1523 88.5739 32.47 88.5122 32.7721 88.4719C32.8434 88.4605 32.9321 88.4796 33.044 88.5247C34.395 89.0447 35.8248 89.478 37.2907 89.812C37.3113 89.8171 37.3327 89.8196 37.3542 89.8196C37.4527 89.8196 37.5434 89.7654 37.5912 89.677C37.7312 89.4168 37.9017 89.1673 38.0979 88.9352C38.1593 88.8621 38.1777 88.7648 38.1474 88.6748C38.1184 88.5875 38.045 88.5213 37.951 88.4994Z" fill="#1C1D28"/>
</g>
</svg>
