<svg width="32" height="32" viewBox="0 0 32 32" fill="none" xmlns="http://www.w3.org/2000/svg">
<path opacity="0.4" d="M22.219 29.3193H9.77967C7.85098 29.4392 5.95691 28.7705 4.5317 27.4679C3.22904 26.0414 2.56039 24.1473 2.68026 22.22V9.77948C2.56039 7.85214 3.2277 5.95809 4.53037 4.53156C5.95691 3.22891 7.85098 2.56026 9.77967 2.68014H22.219C24.145 2.56026 26.0377 3.22758 27.4629 4.53023C28.7643 5.95809 29.4342 7.8508 29.3197 9.77948V22.22C29.4382 24.1473 28.7709 26.0414 27.4683 27.4679C26.0417 28.7705 24.1476 29.4392 22.219 29.3193Z" fill="#716FE7"/>
<path d="M22.7392 13.8631L14.0022 22.6436C13.5478 23.0859 12.9506 23.333 12.3275 23.333H9.27667C9.1079 23.333 8.95211 23.268 8.83527 23.1509C8.71843 23.0339 8.6665 22.8778 8.6665 22.7087L8.7444 19.6257C8.75738 19.0143 9.00404 18.442 9.43246 18.0127L15.625 11.8078C15.7288 11.7038 15.9106 11.7038 16.0144 11.8078L18.1864 13.9711C18.3292 14.1129 18.5369 14.2052 18.7576 14.2052C19.2379 14.2052 19.6144 13.815 19.6144 13.3467C19.6144 13.1126 19.5235 12.9044 19.3807 12.7483C19.3418 12.6963 17.2737 10.6371 17.2737 10.6371C17.1439 10.507 17.1439 10.2859 17.2737 10.1558L18.1435 9.27126C18.9484 8.46476 20.2466 8.46476 21.0515 9.27126L22.7392 10.9623C23.5311 11.7558 23.5311 13.0566 22.7392 13.8631Z" fill="#716FE7"/>
</svg>
