<svg width="28" height="29" viewBox="0 0 28 29" fill="none" xmlns="http://www.w3.org/2000/svg">
<g id="Icon">
<rect id="BG" y="0.358887" width="28" height="28" rx="4" fill="#83D187" style="fill:#83D187;fill:color(display-p3 0.5137 0.8196 0.5294);fill-opacity:1;"/>
<g id="Vector">
<path d="M22.797 19.8003C22.5191 19.6071 22.2746 19.37 22.0729 19.0982C21.5902 18.5497 20.9759 17.8695 19.835 17.8695C18.694 17.8695 18.1016 18.5277 17.597 19.1201C17.0923 19.7125 16.7632 20.0636 16.0172 20.0636C15.2712 20.0636 14.8982 19.6467 14.4375 19.1201C13.9767 18.5935 13.3624 17.8695 12.1995 17.8695C11.0366 17.8695 10.4662 18.5277 9.96149 19.1201C9.45686 19.7125 9.12773 20.0636 8.38175 20.0636C7.63576 20.0636 7.26275 19.6467 6.802 19.1201C6.48879 18.7065 6.09273 18.3627 5.63912 18.1108C5.42099 18.0018 5.15578 18.0902 5.04672 18.3083C4.93765 18.5264 5.02606 18.7916 5.24419 18.9007C5.58868 19.1083 5.89333 19.3758 6.14375 19.6906C6.64838 20.283 7.24078 20.9412 8.38175 20.9412C9.52271 20.9412 10.1151 20.283 10.6197 19.6906C11.1244 19.0982 11.4535 18.7471 12.1995 18.7471C12.9455 18.7471 13.3185 19.164 13.7792 19.6906C14.24 20.2172 14.8543 20.9412 16.0172 20.9412C17.1801 20.9412 17.7505 20.283 18.2552 19.6906C18.7598 19.0982 19.089 18.7471 19.835 18.7471C20.5809 18.7471 20.9539 19.164 21.4147 19.6906C21.6704 20.0189 21.9736 20.3073 22.3143 20.5462C22.5203 20.6795 22.7953 20.6206 22.9286 20.4146C23.062 20.2086 23.003 19.9336 22.797 19.8003Z" fill="#DDFFDF" style="fill:#DDFFDF;fill:color(display-p3 0.8667 1.0000 0.8745);fill-opacity:1;"/>
<path d="M22.797 16.5091C22.5191 16.316 22.2746 16.0788 22.0729 15.807C21.5902 15.2585 20.9759 14.5783 19.835 14.5783C18.694 14.5783 18.1016 15.2365 17.597 15.829C17.0923 16.4214 16.7632 16.7724 16.0172 16.7724C15.2712 16.7724 14.8982 16.3555 14.4375 15.829C13.9767 15.3024 13.3624 14.5783 12.1995 14.5783C11.0366 14.5783 10.4662 15.2365 9.96149 15.829C9.45686 16.4214 9.12773 16.7724 8.38175 16.7724C7.63576 16.7724 7.26275 16.3555 6.802 15.829C6.48879 15.4153 6.09273 15.0716 5.63912 14.8197C5.42099 14.7106 5.15578 14.799 5.04672 15.0172C4.93765 15.2353 5.02606 15.5005 5.24419 15.6096C5.58868 15.8172 5.89333 16.0847 6.14375 16.3994C6.64838 16.9918 7.24078 17.6501 8.38175 17.6501C9.52271 17.6501 10.1151 16.9919 10.6197 16.3994C11.1244 15.807 11.4535 15.456 12.1995 15.456C12.9455 15.456 13.3185 15.8729 13.7792 16.3994C14.24 16.926 14.8543 17.6501 16.0172 17.6501C17.1801 17.6501 17.7505 16.9919 18.2552 16.3994C18.7598 15.807 19.089 15.456 19.835 15.456C20.5809 15.456 20.9539 15.8729 21.4147 16.3994C21.6704 16.7278 21.9736 17.0161 22.3143 17.2551C22.5203 17.3884 22.7953 17.3295 22.9286 17.1235C23.062 16.9175 23.003 16.6424 22.797 16.5091Z" fill="#DDFFDF" style="fill:#DDFFDF;fill:color(display-p3 0.8667 1.0000 0.8745);fill-opacity:1;"/>
<path d="M22.797 12.9985C22.5191 12.8053 22.2746 12.5682 22.0729 12.2964C21.5902 11.7478 20.9759 11.0677 19.835 11.0677C18.694 11.0677 18.1016 11.7259 17.597 12.3183C17.0923 12.9108 16.7632 13.2618 16.0172 13.2618C15.2712 13.2618 14.8982 12.8449 14.4375 12.3183C13.9767 11.7918 13.3624 11.0677 12.1995 11.0677C11.0366 11.0677 10.4662 11.7259 9.96149 12.3183C9.45686 12.9107 9.12773 13.2618 8.38175 13.2618C7.63576 13.2618 7.26275 12.8449 6.802 12.3183C6.48879 11.9047 6.09273 11.5609 5.63912 11.309C5.42099 11.1999 5.15578 11.2884 5.04672 11.5065C4.93765 11.7246 5.02606 11.9898 5.24419 12.0989C5.58868 12.3065 5.89333 12.574 6.14375 12.8888C6.64838 13.4812 7.24078 14.1394 8.38175 14.1394C9.52271 14.1394 10.1151 13.4812 10.6197 12.8888C11.1244 12.2964 11.4535 11.9453 12.1995 11.9453C12.9455 11.9453 13.3185 12.3622 13.7792 12.8888C14.24 13.4153 14.8543 14.1394 16.0172 14.1394C17.1801 14.1394 17.7505 13.4812 18.2552 12.8888C18.7599 12.2963 19.089 11.9453 19.835 11.9453C20.5809 11.9453 20.9539 12.3622 21.4147 12.8888C21.6704 13.2171 21.9736 13.5055 22.3143 13.7444C22.5203 13.8777 22.7953 13.8188 22.9286 13.6128C23.062 13.4068 23.003 13.1317 22.797 12.9985Z" fill="#DDFFDF" style="fill:#DDFFDF;fill:color(display-p3 0.8667 1.0000 0.8745);fill-opacity:1;"/>
<path d="M5.24436 8.80784C5.58886 9.01547 5.8935 9.28298 6.14392 9.59771C6.64855 10.1901 7.24096 10.8484 8.38192 10.8484C9.52288 10.8484 10.1152 10.1902 10.6199 9.59771C11.1245 9.0053 11.4537 8.65425 12.1997 8.65425C12.9456 8.65425 13.3187 9.07115 13.7794 9.59771C14.2401 10.1243 14.8545 10.8484 16.0174 10.8484C17.1803 10.8484 17.7507 10.1902 18.2554 9.59771C18.76 9.0053 19.0891 8.65425 19.8351 8.65425C20.5811 8.65425 20.9541 9.07115 21.4149 9.59771C21.6706 9.92603 21.9738 10.2144 22.3144 10.4534C22.5204 10.5867 22.7955 10.5278 22.9288 10.3218C23.0621 10.1158 23.0032 9.8407 22.7971 9.7074C22.5192 9.51426 22.2747 9.2771 22.0731 9.0053C21.5904 8.45679 20.976 7.77661 19.8351 7.77661C18.6942 7.77661 18.1018 8.43482 17.5971 9.02727C17.0925 9.61967 16.7633 9.97072 16.0173 9.97072C15.2714 9.97072 14.8983 9.55382 14.4376 9.02727C13.9769 8.50067 13.3625 7.77661 12.1996 7.77661C11.0367 7.77661 10.4663 8.43482 9.96162 9.02727C9.45699 9.61967 9.12786 9.97072 8.38188 9.97072C7.63589 9.97072 7.26296 9.55382 6.80218 9.02723C6.48897 8.61356 6.0929 8.26982 5.63929 8.01792C5.42116 7.90886 5.15595 7.99726 5.04689 8.21539C4.93783 8.43352 5.02627 8.69877 5.24436 8.80784Z" fill="#DDFFDF" style="fill:#DDFFDF;fill:color(display-p3 0.8667 1.0000 0.8745);fill-opacity:1;"/>
</g>
</g>
</svg>
